<?xml version="1.0" encoding="iso-8859-1"?>
<!-- Generator: Adobe Illustrator 17.0.0, SVG Export Plug-In . SVG Version: 6.00 Build 0)  -->
<!DOCTYPE svg PUBLIC "-//W3C//DTD SVG 1.1//EN" "http://www.w3.org/Graphics/SVG/1.1/DTD/svg11.dtd">
<svg version="1.1" id="Capa_1" xmlns="http://www.w3.org/2000/svg" xmlns:xlink="http://www.w3.org/1999/xlink" x="0px" y="0px"
	 width="64px" height="64px" viewBox="0 0 64 64" style="enable-background:new 0 0 64 64;" xml:space="preserve">
<g>
	<path d="M54,31.667c-1.661,0-3.222,0.431-4.582,1.183l-5.899-2.874l0.497-0.838c0.491,0.194,1.35,0.46,2.367,0.46
		c1.478,0,2.772-0.545,3.846-1.619c1.58-1.58,2.835-1.866,3.665-2.056c0.571-0.13,1.11-0.253,1.323-0.806
		c0.246-0.641,0.155-1.469,0.058-1.982l3.23-1.14l-0.483-1.45c2.747-0.678,3.2-1.064,3.137-1.633
		c-0.023-0.208-0.061-0.546-1.031-0.728c0.141-0.171,0.194-0.351,0.15-0.556c-0.124-0.571-0.874-0.571-1.234-0.571
		c-0.518,0-1.143,0.067-1.463,0.106l-1.159-0.901c0.988-1.617,0.65-2.586,0.605-2.699l-0.123-0.308l-0.637-0.01
		c-2.844,0-4.324,0.86-5.89,1.771c-1.769,1.028-3.773,2.194-8.353,2.546c-0.998,0.077-1.994,0.116-2.961,0.116
		c-6.071,0-9.71-1.529-10.443-1.869c-0.418-0.73-1.314-1.101-2.667-1.101c-0.413,0-0.836,0.038-1.25,0.092
		c0.457-0.695,0.923-1.384,1.423-2.051h6c1.935,0,1.935-3,0-3H25.5c-0.635,0-1.057,0.325-1.275,0.759
		c-0.194,0.126-0.371,0.289-0.52,0.484c-0.719,0.945-1.38,1.927-2.008,2.93c-0.003,0-0.006,0-0.009,0
		c-5.72,0.521-10.17,5.274-10.368,5.488l-0.773,0.839h0.107c-2.752,1.802-5.36,4.157-5.188,4.814l0.112,0.384l0.532-0.011l0.1-0.046
		c0.515-0.239,1.529-0.37,2.168-0.426c0.002,0.003,0.005,0.007,0.007,0.01c0.124,0.18,0.33,0.336,0.577,0.47
		c-0.195,0.632-0.367,1.319-0.516,2.013l-3.093,0.009c-0.151-0.415-0.421-0.788-0.948-0.714c-0.577,0.081-1.033,0.145-0.748,4.855
		c0.061,1.008,0.458,1.686,0.962,2.112C2.419,35.461,1,38.149,1,41.167c0,5.238,4.262,9.5,9.5,9.5s9.5-4.262,9.5-9.5
		c0-1.686-0.446-3.267-1.219-4.641c0.287-0.049,0.624-0.082,1.021-0.082c1.111,0,2.414,0.249,3.872,0.739
		c1.798,0.604,3.889,0.91,6.214,0.91c2.848,0,5.002-0.459,5.093-0.479l0.342-0.107l0.057-0.333c0.04,0,0.263,0.022,0.761,0.454
		c0.628,0.544,1.696,0.821,3.173,0.821c1.587,0,3.111-0.312,3.574-0.479c0.749-0.27,1.204-1.527,1.429-2.366l1.55,0.678
		c-0.862,1.429-1.367,3.097-1.367,4.884c0,5.238,4.262,9.5,9.5,9.5s9.5-4.262,9.5-9.5S59.238,31.667,54,31.667z M15.685,33.216
		l2.329-1.917c1.604,0.974,3.309,2.077,4.355,2.835c-0.162-0.015-0.325-0.023-0.49-0.023c-1.532,0-2.916,0.667-3.863,1.268
		C17.365,34.535,16.579,33.802,15.685,33.216z M14.76,25.253c0.422,0.106,0.853,0.258,1.233,0.403
		c0.376,0.144,0.708,0.271,0.992,0.338c0.162,0.681-0.412,3.505-1.09,5.868l-0.362,1.262c-0.467-0.293-0.958-0.55-1.474-0.759
		C14.246,29.989,14.54,27.625,14.76,25.253z M10.609,25.919c-0.104,0.091-0.209,0.186-0.315,0.292
		c0.032-0.113,0.069-0.209,0.103-0.318C10.468,25.903,10.538,25.911,10.609,25.919z M11.577,27.059
		c-0.163,1.545-0.326,3.091-0.462,4.639c-0.204-0.013-0.408-0.031-0.615-0.031c-0.412,0-0.815,0.035-1.213,0.086
		c0.299-1.835,0.923-3.086,1.568-3.918l0.535-0.386l-0.212,0.001C11.314,27.302,11.447,27.174,11.577,27.059z M5.089,28.968
		l1.639-0.005l-1.631,1.176C5.087,29.713,5.085,29.313,5.089,28.968z M5.21,31.908l2.797-2.018
		c-0.135,0.886-0.229,1.655-0.285,2.155c-0.002,0.013-0.003,0.026-0.004,0.039c-0.59,0.181-1.156,0.419-1.691,0.706
		C5.775,32.74,5.365,32.565,5.21,31.908z"/>
</g>
</svg>
