<?xml version="1.0" encoding="iso-8859-1"?>
<!-- Generator: Adobe Illustrator 17.0.0, SVG Export Plug-In . SVG Version: 6.00 Build 0)  -->
<!DOCTYPE svg PUBLIC "-//W3C//DTD SVG 1.1//EN" "http://www.w3.org/Graphics/SVG/1.1/DTD/svg11.dtd">
<svg version="1.1" id="Capa_1" xmlns="http://www.w3.org/2000/svg" xmlns:xlink="http://www.w3.org/1999/xlink" x="0px" y="0px"
	 width="64px" height="64px" viewBox="0 0 64 64" style="enable-background:new 0 0 64 64;" xml:space="preserve">
<g>
	<path d="M51.625,28.188c-4.71,0-8.727,2.932-10.35,7.066c-1-0.167-1.844-0.225-2.358-0.087l-0.083-1.25c0,0,2-0.333,2.333-3.25
		C41.5,27.75,47.583,21,52.417,20.25c4.833-0.75,9-2.417,9-2.417s-3.083,0.583-8.917,1.25s-11.417,9.083-15,9.417
		c-3.583,0.333-6.364-1.984-14.667-8.417c-0.304-0.235-0.593-0.338-0.856-0.363l0.595-1.382c-1.006-0.553-1.698-1.61-1.698-2.838
		c0-0.145,0.024-0.284,0.043-0.425c-0.078,0.093-0.152,0.19-0.203,0.309l-5.434,12.614c-1.285-0.518-2.685-0.81-4.156-0.81
		C4.981,27.188,0,32.168,0,38.312s4.981,11.125,11.125,11.125S22.25,44.457,22.25,38.312c0-3.638-1.754-6.858-4.453-8.887
		l2.814-6.533c0.545,0.727,3.066,4.211,4.473,8.358c1.583,4.667,2.75,8.833,9.833,7.25c1.81-0.405,3.755-0.486,5.65-0.386
		c-0.042,0.394-0.067,0.793-0.067,1.198c0,6.144,4.981,11.125,11.125,11.125S62.75,45.457,62.75,39.312S57.769,28.188,51.625,28.188
		z M19.25,38.312c0,4.48-3.645,8.125-8.125,8.125S3,42.793,3,38.312c0-4.48,3.645-8.125,8.125-8.125
		c1.048,0,2.047,0.206,2.967,0.569l-3.01,6.987c-0.25,0.579-0.041,1.226,0.466,1.445l0.804,0.346
		c0.507,0.219,1.121-0.074,1.37-0.653l2.839-6.589C18.208,33.78,19.25,35.924,19.25,38.312z M51.625,47.438
		c-4.48,0-8.125-3.645-8.125-8.125c0-0.303,0.02-0.602,0.052-0.897c4.235,0.612,7.614,1.834,7.614,1.834S53,41.083,53.75,39.583
		s-1.583-1.5-3.167-1.833c-0.869-0.183-3.645-1.118-6.332-1.828c1.288-2.789,4.105-4.734,7.374-4.734
		c4.48,0,8.125,3.645,8.125,8.125C59.75,43.793,56.105,47.438,51.625,47.438z"/>
	<path d="M22.022,14.719c-0.091,0.244-0.147,0.505-0.147,0.781c0,0.818,0.441,1.527,1.093,1.921
		c0.339,0.205,0.732,0.329,1.157,0.329c1.243,0,2.25-1.007,2.25-2.25c0-1.243-1.007-2.25-2.25-2.25
		C23.158,13.25,22.341,13.863,22.022,14.719z"/>
</g>
</svg>
