<?xml version="1.0" encoding="iso-8859-1"?>
<!-- Generator: Adobe Illustrator 17.0.0, SVG Export Plug-In . SVG Version: 6.00 Build 0)  -->
<!DOCTYPE svg PUBLIC "-//W3C//DTD SVG 1.1//EN" "http://www.w3.org/Graphics/SVG/1.1/DTD/svg11.dtd">
<svg version="1.1" id="Capa_1" xmlns="http://www.w3.org/2000/svg" xmlns:xlink="http://www.w3.org/1999/xlink" x="0px" y="0px"
	 width="64px" height="64px" viewBox="0 0 64 64" style="enable-background:new 0 0 64 64;" xml:space="preserve">
<g>
	<path d="M62.312,24.794l0.25-1.018c-0.02-0.013-0.042-0.024-0.068-0.034c-0.528-0.203-2.307,0.158-2.307,0.158
		c-0.479-0.199-4.312-0.397-4.312-0.397c-7.542-3.576-12.792-4.421-12.792-4.421s-4.542-0.149-10.292,0s-11.333,4.868-11.75,5.066
		c-0.417,0.199-0.5-0.199-0.5-0.199c-13.167,0-18.583,4.172-18.583,4.172s0.292,1.887-0.333,2.533
		C1,31.301,1.958,34.232,1.958,34.232L1.292,34.58v0.944c1.193,0.719,3.06,1.136,5.027,1.374c-0.285-0.659-0.444-1.385-0.444-2.147
		c0-2.998,2.439-5.438,5.438-5.438c2.998,0,5.438,2.439,5.438,5.438c0,0.838-0.196,1.629-0.536,2.339
		c3.834-0.067,14.182-0.253,18.453-0.374c2.379-0.067,6.312,0.014,10.023,0.12c-0.24-0.652-0.378-1.352-0.378-2.086
		c0-3.343,2.72-6.062,6.062-6.062c3.343,0,6.062,2.72,6.062,6.062c0,0.633-0.098,1.242-0.279,1.816
		c1.982-0.651,4.529-1.651,4.529-1.651c3.969-2.98,2-7.637,1.979-7.786C62.646,26.98,62.312,24.794,62.312,24.794z"/>
	<path d="M11.312,39.188c1.581,0,2.96-0.833,3.746-2.078c0.432-0.685,0.692-1.49,0.692-2.359c0-2.451-1.987-4.438-4.438-4.438
		c-2.451,0-4.438,1.987-4.438,4.438c0,0.833,0.244,1.604,0.643,2.27C8.294,38.313,9.695,39.188,11.312,39.188z"/>
	<path d="M50.375,39.812c2.007,0,3.726-1.177,4.545-2.871c0.322-0.666,0.518-1.403,0.518-2.192c0-2.796-2.267-5.062-5.062-5.062
		c-2.796,0-5.062,2.267-5.062,5.062c0,0.759,0.179,1.472,0.478,2.118C46.594,38.602,48.338,39.812,50.375,39.812z"/>
</g>
</svg>
