<?xml version="1.0" encoding="iso-8859-1"?>
<!-- Generator: Adobe Illustrator 17.0.0, SVG Export Plug-In . SVG Version: 6.00 Build 0)  -->
<!DOCTYPE svg PUBLIC "-//W3C//DTD SVG 1.1//EN" "http://www.w3.org/Graphics/SVG/1.1/DTD/svg11.dtd">
<svg version="1.1" id="Capa_1" xmlns="http://www.w3.org/2000/svg" xmlns:xlink="http://www.w3.org/1999/xlink" x="0px" y="0px"
	 width="64px" height="64px" viewBox="0 0 64 64" style="enable-background:new 0 0 64 64;" xml:space="preserve">
<g>
	<path d="M4.561,40.874c-0.278-0.719-0.436-1.496-0.436-2.311c0-3.55,2.888-6.438,6.438-6.438S17,35.013,17,38.562
		c0,0.875-0.177,1.71-0.495,2.472l32.651-1.851c-0.02-0.204-0.031-0.411-0.031-0.62c0-3.55,2.888-6.438,6.438-6.438
		c3.513,0,6.374,2.83,6.432,6.33l0.672-0.038C64,33.583,61.583,32,61.583,32c0.667-5.417-2.75-6.583-2.75-6.583
		c-1-2.25-3.917-5.5-3.917-5.5C58.25,17.667,52.5,19,52.5,19c-7.583-1-24.833-0.25-26.833,0.75s-8,6.5-8,6.5
		c-16.833,1.25-15.5,7.333-15.5,7.333c-1.833,0.333-0.75,3.167-0.025,5.838C2.335,40.133,3.281,40.587,4.561,40.874z"/>
	<path d="M10.562,33.125c-3.003,0-5.438,2.434-5.438,5.438c0,0.911,0.227,1.768,0.622,2.522C6.657,42.817,8.47,44,10.562,44
		c2.087,0,3.897-1.177,4.808-2.902c0.4-0.757,0.629-1.62,0.629-2.536C16,35.559,13.566,33.125,10.562,33.125z"/>
	<path d="M55.562,33.125c-3.003,0-5.438,2.434-5.438,5.438c0,0.19,0.01,0.378,0.029,0.564C50.436,41.864,52.75,44,55.562,44
		C58.566,44,61,41.566,61,38.562c0-0.017-0.002-0.034-0.003-0.051C60.97,35.532,58.548,33.125,55.562,33.125z"/>
</g>
</svg>
