<?xml version="1.0" encoding="iso-8859-1"?>
<!-- Generator: Adobe Illustrator 17.0.0, SVG Export Plug-In . SVG Version: 6.00 Build 0)  -->
<!DOCTYPE svg PUBLIC "-//W3C//DTD SVG 1.1//EN" "http://www.w3.org/Graphics/SVG/1.1/DTD/svg11.dtd">
<svg version="1.1" id="Capa_1" xmlns="http://www.w3.org/2000/svg" xmlns:xlink="http://www.w3.org/1999/xlink" x="0px" y="0px"
	 width="64px" height="64px" viewBox="0 0 64 64" style="enable-background:new 0 0 64 64;" xml:space="preserve">
<g>
	<path d="M59.46,38.452V23.501c0-0.542-5.439-4.981-5.981-4.981H5.854c-0.542,0-0.981,0.439-0.981,0.981v19.019h4.46
		c1.103,0,2,0.897,2,2v0.246c1.01-0.508,2.145-0.802,3.351-0.802c3.85,0,7.028,2.923,7.436,6.666h17.722
		c-0.001-0.061-0.009-0.121-0.009-0.183c0-4.126,3.357-7.483,7.483-7.483c3.208,0,5.943,2.033,7.005,4.875v-3.388
		c0-1.103,0.897-2,2-2H59.46z M28.375,31.461c0,0.552-0.448,1-1,1h-8.75c-0.552,0-1-0.448-1-1v-8.75c0-0.552,0.448-1,1-1h8.75
		c0.552,0,1,0.448,1,1V31.461z M42.375,31.461c0,0.552-0.448,1-1,1h-8.75c-0.552,0-1-0.448-1-1v-8.75c0-0.552,0.448-1,1-1h8.75
		c0.552,0,1,0.448,1,1V31.461z M47.38,32.667c-0.578,0-1.047-0.484-1.047-1.08v-9.001c0-0.596,0.469-1.08,1.047-1.08h4.488
		c0.578,0,5.279,3.804,5.279,4.4v5.68c0,0.596-0.469,1.08-1.047,1.08H47.38z"/>
	<path d="M14.684,41.965c-2.75,0-5.02,2.026-5.416,4.666c-0.04,0.267-0.067,0.539-0.067,0.817c0,3.028,2.455,5.483,5.483,5.483
		s5.483-2.455,5.483-5.483c0-0.278-0.027-0.55-0.067-0.817C19.704,43.992,17.434,41.965,14.684,41.965z"/>
	<path d="M47.316,40.965c-3.028,0-5.483,2.455-5.483,5.483c0,0.062,0.007,0.122,0.009,0.183c0.097,2.943,2.507,5.3,5.474,5.3
		s5.377-2.357,5.474-5.3c0.002-0.061,0.009-0.121,0.009-0.183C52.799,43.42,50.344,40.965,47.316,40.965z"/>
	<path d="M10.333,41.372v-0.851c0-0.552-0.448-1-1-1h-4.46H4.292c-0.552,0-1,0.448-1,1v5.042c0,0.552,0.448,1,1,1h0.042
		c0.176,0,0.545-0.046,0.965-0.126c0.899-0.171,2.035-0.498,2.035-0.874l0.16-0.163l2.84-2.9V41.372z"/>
	<path d="M61.5,39.452h-2.04h-3.139c-0.552,0-1,0.448-1,1v5.179c0,0.552,0.448,1,1,1h2.158H61.5c0.552,0,1-0.448,1-1v-5.179
		C62.5,39.9,62.052,39.452,61.5,39.452z"/>
</g>
</svg>
