<?xml version="1.0" encoding="iso-8859-1"?>
<!-- Generator: Adobe Illustrator 17.0.0, SVG Export Plug-In . SVG Version: 6.00 Build 0)  -->
<!DOCTYPE svg PUBLIC "-//W3C//DTD SVG 1.1//EN" "http://www.w3.org/Graphics/SVG/1.1/DTD/svg11.dtd">
<svg version="1.1" id="Capa_1" xmlns="http://www.w3.org/2000/svg" xmlns:xlink="http://www.w3.org/1999/xlink" x="0px" y="0px"
	 width="64px" height="64px" viewBox="0 0 64 64" style="enable-background:new 0 0 64 64;" xml:space="preserve">
<g>
	<path d="M2.812,32.438c-2.688,2.688-1.312,0-1.375,4.75c-0.054,4.12,2.475,4.196,3.148,4.144c-0.132-0.506-0.21-1.034-0.21-1.581
		c0-3.454,2.81-6.264,6.264-6.264c3.454,0,6.264,2.81,6.264,6.264c0,0.55-0.078,1.081-0.212,1.589
		c9.348,0.007,22.348-0.018,32.074-0.166c-0.107-0.458-0.169-0.933-0.169-1.423c0-3.454,2.81-6.264,6.264-6.264
		s6.264,2.81,6.264,6.264c0,0.349-0.036,0.688-0.091,1.022c0.696-0.063,1.12-0.132,1.216-0.209c1.25-1,0.75-7.25-0.938-8.562
		s-0.75-2-0.812-4.438c-0.034-1.314-1.119-3.183-2.113-4.634c0.791-0.23,1.565-0.497,2.306-0.877
		c0.093-0.048,0.151-0.113,0.216-0.174l0,0c0.307-0.285,0.336-0.679,0.18-1.022c-0.004-0.014-0.011-0.027-0.016-0.041
		c-0.018-0.036-0.034-0.071-0.056-0.105c-0.145-0.301-0.413-0.547-0.83-0.585c-1.203-0.108-2.389-0.15-3.547-0.527
		c-0.133-0.043-0.253-0.048-0.368-0.042L56.25,19.5c0,0-9.062-2.312-20.5-2.062S24,24.562,14.125,25.25S2.812,32.438,2.812,32.438z"
		/>
	<path d="M10.639,34.486c-2.907,0-5.264,2.357-5.264,5.264c0,0.549,0.108,1.068,0.264,1.566c0.67,2.137,2.642,3.698,5.001,3.698
		c2.35,0,4.317-1.55,4.994-3.676c0.161-0.504,0.271-1.031,0.271-1.588C15.904,36.843,13.547,34.486,10.639,34.486z"/>
	<path d="M54.861,34.486c-2.907,0-5.264,2.357-5.264,5.264c0,0.491,0.089,0.956,0.214,1.407c0.618,2.22,2.633,3.858,5.05,3.858
		c2.53,0,4.64-1.787,5.146-4.166c0.075-0.355,0.118-0.721,0.118-1.098C60.125,36.843,57.768,34.486,54.861,34.486z"/>
</g>
</svg>
