<?xml version="1.0" encoding="iso-8859-1"?>
<!-- Generator: Adobe Illustrator 17.0.0, SVG Export Plug-In . SVG Version: 6.00 Build 0)  -->
<!DOCTYPE svg PUBLIC "-//W3C//DTD SVG 1.1//EN" "http://www.w3.org/Graphics/SVG/1.1/DTD/svg11.dtd">
<svg version="1.1" id="Capa_1" xmlns="http://www.w3.org/2000/svg" xmlns:xlink="http://www.w3.org/1999/xlink" x="0px" y="0px"
	 width="64px" height="64px" viewBox="0 0 64 64" style="enable-background:new 0 0 64 64;" xml:space="preserve">
<g>
	<path d="M8.006,40.788C8.005,40.747,8,40.707,8,40.667c0-3.906,3.178-7.083,7.083-7.083s7.083,3.178,7.083,7.083
		c0,0.142-0.013,0.281-0.021,0.421c7.775-0.09,16.188-0.465,22.876-0.835c0.216-3.713,3.296-6.669,7.062-6.669
		c3.413,0,6.269,2.426,6.936,5.644c4.936-0.961,3.821-3.067,3.898-4.325c0.083-1.363-1.833-1.363-1.333-2.726
		S61.5,20.638,55.667,19.275c-5.833-1.363-21.417-0.909-26.917,0.636c-5.5,1.545-13.75,7.359-15,7.541
		C12.5,27.634,2.5,31.087,1.667,32.904C0.833,34.721,2.5,40.082,2.5,40.082C3.932,40.396,5.812,40.626,8.006,40.788z"/>
	<path d="M15.083,34.583c-3.36,0-6.083,2.724-6.083,6.083c0,0.064,0.008,0.126,0.01,0.189c0.101,3.271,2.778,5.894,6.074,5.894
		c3.214,0,5.84-2.495,6.062-5.653c0.01-0.143,0.022-0.285,0.022-0.431C21.167,37.307,18.443,34.583,15.083,34.583z"/>
	<path d="M52.083,34.583c-3.201,0-5.819,2.474-6.06,5.613C46.012,40.352,46,40.508,46,40.667c0,3.36,2.724,6.083,6.083,6.083
		c3.36,0,6.083-2.724,6.083-6.083c0-0.438-0.048-0.864-0.136-1.276C57.444,36.644,55.005,34.583,52.083,34.583z"/>
</g>
</svg>
