<?xml version="1.0" encoding="iso-8859-1"?>
<!-- Generator: Adobe Illustrator 17.0.0, SVG Export Plug-In . SVG Version: 6.00 Build 0)  -->
<!DOCTYPE svg PUBLIC "-//W3C//DTD SVG 1.1//EN" "http://www.w3.org/Graphics/SVG/1.1/DTD/svg11.dtd">
<svg version="1.1" id="Capa_1" xmlns="http://www.w3.org/2000/svg" xmlns:xlink="http://www.w3.org/1999/xlink" x="0px" y="0px"
	 width="64px" height="64px" viewBox="0 0 64 64" style="enable-background:new 0 0 64 64;" xml:space="preserve">
<g>
	<path d="M61.667,39.375c1-1.292,0.75-4.292,0.583-5.458c-0.167-1.167-1.125-0.625-1.083-1.417c0.042-0.792,0.125-3.083-0.292-3.375
		c-0.417-0.292-0.792-0.458-0.792-0.458c-0.583-1.208-4.542-4.125-4.542-4.125v-0.458c-6.375-0.708-20.635-1.677-24.698-0.708
		s-13.375,6-13.375,6C7.75,29.562,3.031,32.719,3.031,32.719s0.125,0.5-0.969,1.5s-0.979,2.948-0.979,2.948L1.75,40.25
		c0.341,0.284,4.797,1.749,6.08,1.593c-0.13-0.49-0.205-1.001-0.205-1.531c0-3.308,2.692-6,6-6s6,2.692,6,6
		c0,0.149-0.012,0.294-0.022,0.44c3.896,0.009,16.865,0.038,26.046,0.034c-0.012-0.157-0.024-0.314-0.024-0.474c0-3.308,2.692-6,6-6
		s6,2.692,6,6c0,0.061-0.007,0.119-0.009,0.179C60.022,40.092,61.667,39.375,61.667,39.375z"/>
	<path d="M13.625,35.312c-2.761,0-5,2.239-5,5c0,0.425,0.069,0.831,0.169,1.225c0.549,2.166,2.495,3.775,4.831,3.775
		c2.611,0,4.731-2.009,4.956-4.562c0.013-0.147,0.044-0.288,0.044-0.438C18.625,37.551,16.386,35.312,13.625,35.312z"/>
	<path d="M51.625,35.312c-2.761,0-5,2.239-5,5c0,0.162,0.033,0.315,0.048,0.473c0.242,2.536,2.353,4.527,4.952,4.527
		c2.652,0,4.799-2.07,4.968-4.68c0.007-0.108,0.032-0.211,0.032-0.32C56.625,37.551,54.386,35.312,51.625,35.312z"/>
</g>
</svg>
