<?xml version="1.0" encoding="iso-8859-1"?>
<!-- Generator: Adobe Illustrator 17.0.0, SVG Export Plug-In . SVG Version: 6.00 Build 0)  -->
<!DOCTYPE svg PUBLIC "-//W3C//DTD SVG 1.1//EN" "http://www.w3.org/Graphics/SVG/1.1/DTD/svg11.dtd">
<svg version="1.1" id="Capa_1" xmlns="http://www.w3.org/2000/svg" xmlns:xlink="http://www.w3.org/1999/xlink" x="0px" y="0px"
	 width="64px" height="64px" viewBox="0 0 64 64" style="enable-background:new 0 0 64 64;" xml:space="preserve">
<g>
	<circle cx="10.887" cy="40.305" r="4.883"/>
	<circle cx="50.954" cy="40.305" r="4.883"/>
	<path d="M2.267,37.672h1.603c0.079,0.764,0.163,1.38,0.163,1.38c1.486-0.318,4.076-5.966,7.346-5.966s5.393,2.802,5.647,5.35
		s1.783,2.25,1.783,2.25c12.314,0.679,25.434-0.608,25.434-0.608c-0.34-6.765,8.747-8.734,11.04-4.063
		c2.293,4.671,6.879,4.034,6.879,4.034l-0.106-1.253C63.968,38.67,63,38.065,63,38.065s0,0,0-1.274c0-1.274-3.257-1.497-3.257-1.497
		C52.44,14.488,25.18,21.983,25.18,21.983c-1.274,2.675-4.458,5.414-4.458,5.414C11.868,26.823,6.9,31.982,6.9,31.982
		c-1.653,0.672-2.695,1.804-3.034,2.887H2.267c-0.516,0-0.934,0.627-0.934,1.401S1.752,37.672,2.267,37.672z"/>
</g>
</svg>
