<?xml version="1.0" encoding="iso-8859-1"?>
<!-- Generator: Adobe Illustrator 17.0.0, SVG Export Plug-In . SVG Version: 6.00 Build 0)  -->
<!DOCTYPE svg PUBLIC "-//W3C//DTD SVG 1.1//EN" "http://www.w3.org/Graphics/SVG/1.1/DTD/svg11.dtd">
<svg version="1.1" id="Capa_1" xmlns="http://www.w3.org/2000/svg" xmlns:xlink="http://www.w3.org/1999/xlink" x="0px" y="0px"
	 width="64px" height="64px" viewBox="0 0 64 64" style="enable-background:new 0 0 64 64;" xml:space="preserve">
<g>
	<path d="M60.875,41.125c0.056-1.689-0.068-3.173-0.318-4.494c0.785-0.465,1.318-1.323,1.318-2.318c0-1.484-1.175-2.688-2.625-2.688
		c-0.219,0-0.428,0.035-0.631,0.087C54.982,26.31,48.25,26.5,48.25,26.5c-2.125-18.25-23.5-14.625-23.5-14.625v4.028
		c-4.815,0.104-9.624,0.327-14.417,0.93c-0.852,0.107-1.445,0.603-1.5,1.5c-0.194,3.159-0.648,6.231-1.355,9.3
		C4.819,28.031,4.908,29.351,4.5,32c-0.116,0.755-0.232,1.62-0.342,2.5H3.5c-0.552,0-1,0.448-1,1v3c0,0.552,0.448,1,1,1h0.099
		c-0.062,0.615-0.099,1-0.099,1c-3.375,0.5-2.375,4.125-2.375,4.125h5.817c0.869-4.205,4.6-7.375,9.058-7.375
		s8.189,3.17,9.058,7.375h13.883c0.869-4.205,4.6-7.375,9.058-7.375s8.189,3.17,9.058,7.375h3.567c0,0,2.5,0,2.5-2
		S60.875,41.125,60.875,41.125z M24.75,26.5c0,0-8.97,0.897-14.167,0.991c0.553-2.581,0.922-5.166,1.138-7.806
		c4.333-0.481,8.678-0.688,13.029-0.782V26.5z"/>
	<path d="M24.25,46.5c0-0.646-0.082-1.272-0.222-1.875C23.178,40.973,19.91,38.25,16,38.25s-7.178,2.723-8.028,6.375
		C7.832,45.228,7.75,45.854,7.75,46.5c0,4.556,3.694,8.25,8.25,8.25S24.25,51.056,24.25,46.5z"/>
	<path d="M48,54.75c4.556,0,8.25-3.694,8.25-8.25c0-0.646-0.082-1.272-0.222-1.875C55.178,40.973,51.91,38.25,48,38.25
		s-7.178,2.723-8.028,6.375c-0.14,0.603-0.222,1.229-0.222,1.875C39.75,51.056,43.444,54.75,48,54.75z"/>
</g>
</svg>
