<?xml version="1.0" encoding="iso-8859-1"?>
<!-- Generator: Adobe Illustrator 17.0.0, SVG Export Plug-In . SVG Version: 6.00 Build 0)  -->
<!DOCTYPE svg PUBLIC "-//W3C//DTD SVG 1.1//EN" "http://www.w3.org/Graphics/SVG/1.1/DTD/svg11.dtd">
<svg version="1.1" id="Capa_1" xmlns="http://www.w3.org/2000/svg" xmlns:xlink="http://www.w3.org/1999/xlink" x="0px" y="0px"
	 width="64px" height="64px" viewBox="0 0 64 64" style="enable-background:new 0 0 64 64;" xml:space="preserve">
<g>
	<path d="M2.739,41.349c0.271,0,0.692-0.479,0.941-1.069l2.576-6.112c0.249-0.59,0.924-1.145,1.511-1.225
		c1.938-0.262,5.985-0.696,7.398,0.005c0.804,0.399,1.807,6.927,2.777,6.927c2.397,0,5.048,2.357,7.81,2.357
		c6.236,0,13.038,0,18.761,0c1.089,0,4.274-9.428,5.261-9.428c4.856,0,7.269,1.178,7.935,1.178c0.347,0,1.704,7.385,2.065,7.375
		c0.828-0.022,1.423-0.506,1.812-0.989c0.392-0.487,0.586-1.513,0.551-2.162c-0.068-1.258-0.241-2.073-0.428-2.599
		c-0.215-0.606-0.684-1.458-0.772-2.102l-0.125-0.91c-0.089-0.643-0.547-1.482-1.077-1.77c-3.314-1.798-10.988-3.118-13.805-3.557
		c-0.585-0.091-1.309-0.61-1.614-1.168l-2.283-4.169c-0.305-0.557-1.032-1.009-1.623-1.009H16.069c-0.591,0-1.262,0.483-1.5,1.079
		l-1.37,3.439c-0.237,0.596-0.909,1.079-1.5,1.079H3.407c-0.591,0-1.06,0.535-1.211,1.165C1.852,29.114,1,30.439,1,35.457
		c0,2.87,0.26,4.347,0.543,5.106C1.767,41.165,2.468,41.349,2.739,41.349z"/>
	<circle cx="10.719" cy="40.361" r="5.831"/>
	<circle cx="52.984" cy="40.361" r="5.862"/>
</g>
</svg>
