<?xml version="1.0" encoding="iso-8859-1"?>
<!-- Generator: Adobe Illustrator 17.0.0, SVG Export Plug-In . SVG Version: 6.00 Build 0)  -->
<!DOCTYPE svg PUBLIC "-//W3C//DTD SVG 1.1//EN" "http://www.w3.org/Graphics/SVG/1.1/DTD/svg11.dtd">
<svg version="1.1" id="Capa_1" xmlns="http://www.w3.org/2000/svg" xmlns:xlink="http://www.w3.org/1999/xlink" x="0px" y="0px"
	 width="64px" height="64px" viewBox="0 0 64 64" style="enable-background:new 0 0 64 64;" xml:space="preserve">
<g>
	<path d="M57.127,36.926c0.039-0.793,0.696-1.426,1.498-1.426h2.197h0.517h0.501c-0.004-0.183-0.01-0.366-0.03-0.553
		c-0.407-3.798-4.327-4.885-4.55-4.941c-10.005-1.463-11.494-4.297-12.807-6.798c-1.524-2.903-2.964-5.645-15.328-5.645
		c-19.747,0-24.756,12.293-25.846,16.188h0.509H4.31h1.128c0.827,0,1.5,0.673,1.5,1.5v4.25c0,0.827-0.673,1.5-1.5,1.5H3.192H2.676
		H2.188c-0.01,0-0.018-0.003-0.028-0.003c0.059,0.339,0.189,0.631,0.389,0.875c0.489,0.594,1.247,0.719,1.796,0.719
		c0.234,0,0.41-0.023,0.424-0.028l4.542,0c-0.051-0.164-0.09-0.331-0.129-0.5C9.145,41.9,9.116,41.735,9.09,41.569
		C9.036,41.219,9,40.864,9,40.5c0-3.86,3.14-7,7-7s7,3.14,7,7c0,0.363-0.036,0.718-0.09,1.067c-0.026,0.167-0.055,0.333-0.092,0.496
		c-0.039,0.168-0.078,0.336-0.129,0.5l18.622,0c-0.05-0.163-0.09-0.331-0.129-0.499c-0.038-0.164-0.067-0.331-0.092-0.499
		C41.036,41.216,41,40.862,41,40.5c0-3.86,3.14-7,7-7s7,3.14,7,7c0,0.215-0.013,0.426-0.032,0.636
		c-0.016,0.171-0.042,0.338-0.069,0.505c-0.028,0.172-0.062,0.341-0.103,0.508L57.029,42c-0.233-0.101-0.432-0.263-0.586-0.462
		c-0.111-0.143-0.195-0.306-0.248-0.484c-0.041-0.137-0.07-0.279-0.07-0.429l0.018-0.133L57.127,36.926z"/>
	<path d="M16,34.5c-3.314,0-6,2.686-6,6c0,0.365,0.038,0.721,0.1,1.068c0.03,0.167,0.069,0.332,0.112,0.494
		c0.046,0.17,0.099,0.336,0.159,0.5C11.213,44.858,13.412,46.5,16,46.5c2.588,0,4.787-1.642,5.629-3.938
		c0.06-0.164,0.113-0.33,0.159-0.5c0.044-0.163,0.082-0.328,0.113-0.496C21.962,41.22,22,40.865,22,40.5
		C22,37.186,19.314,34.5,16,34.5z"/>
	<path d="M48,34.5c-3.314,0-6,2.686-6,6c0,0.364,0.038,0.718,0.1,1.064c0.03,0.169,0.069,0.335,0.113,0.499
		c0.046,0.17,0.099,0.336,0.159,0.499C43.213,44.858,45.412,46.5,48,46.5c2.715,0,5.007-1.805,5.747-4.28
		c0.05-0.167,0.096-0.337,0.131-0.51c0.034-0.166,0.057-0.335,0.077-0.506C53.982,40.973,54,40.739,54,40.5
		C54,37.186,51.314,34.5,48,34.5z"/>
	<path d="M2.679,40h0.505h2.254c0.276,0,0.5-0.224,0.5-0.5v-4.25c0-0.276-0.224-0.5-0.5-0.5H4.056H3.545H3.037h-0.85
		c-0.276,0-0.5,0.224-0.5,0.5v4.25c0,0.273,0.219,0.493,0.491,0.498C2.182,39.998,2.184,40,2.188,40H2.679z"/>
	<path d="M57.625,41.125h1.474h0.649H62c0.276,0,0.5-0.224,0.5-0.5V37c0-0.276-0.224-0.5-0.5-0.5h-0.211h-0.505h-0.519h-2.14
		c-0.276,0-0.5,0.224-0.5,0.5l-0.018,0.133l-0.979,3.548c0.013,0.118,0.07,0.221,0.151,0.3
		C57.369,41.069,57.49,41.125,57.625,41.125z"/>
</g>
</svg>
