<?xml version="1.0" encoding="iso-8859-1"?>
<!-- Generator: Adobe Illustrator 17.0.0, SVG Export Plug-In . SVG Version: 6.00 Build 0)  -->
<!DOCTYPE svg PUBLIC "-//W3C//DTD SVG 1.1//EN" "http://www.w3.org/Graphics/SVG/1.1/DTD/svg11.dtd">
<svg version="1.1" id="Capa_1" xmlns="http://www.w3.org/2000/svg" xmlns:xlink="http://www.w3.org/1999/xlink" x="0px" y="0px"
	 width="64px" height="64px" viewBox="0 0 64 64" style="enable-background:new 0 0 64 64;" xml:space="preserve">
<g>
	<path d="M1.875,37.188c0,1.688,0.875,1.25,5.5,1.812c0.036,0.004,0.094,0.008,0.134,0.012c0.092-4.056,3.413-7.328,7.491-7.328
		c4.124,0,7.479,3.345,7.498,7.465c6.906-0.063,14.984-0.205,21.772-0.362c0.208-3.951,3.478-7.103,7.48-7.103
		c3.813,0,6.963,2.861,7.433,6.548c3.432-0.495,3.38-2.044,3.38-2.044c0.812-12.809-5.812-16.312-5.812-16.312
		c-0.322-0.038-0.628-0.068-0.945-0.103c-1.843-1.456-6.071-4.147-12.156-4.147c-8.049,0-13.36,3.521-13.583,3.671l0.003,0.004
		c-0.41,0.03-0.779,0.057-1.068,0.075c-3.062,0.188-15.75,7.375-15.75,7.375c-10.75,1.688-10.625,6.5-10.625,6.5
		c-0.812,0.062-1.188,1.25-0.75,2.25S1.875,37.188,1.875,37.188z M43.648,17.625c3.084,0,5.649,0.79,7.593,1.703
		c-6.528-0.524-11.856-0.5-15.759-0.347C37.595,18.263,40.389,17.625,43.648,17.625z"/>
	<path d="M15,33.684c-3.01,0-5.461,2.432-5.497,5.435c0,0.022-0.003,0.043-0.003,0.065c0,3.033,2.468,5.5,5.5,5.5s5.5-2.467,5.5-5.5
		c0-0.006-0.001-0.012-0.001-0.019C20.489,36.141,18.026,33.684,15,33.684z"/>
	<path d="M51.75,33.684c-2.882,0-5.249,2.23-5.477,5.055c-0.012,0.147-0.023,0.295-0.023,0.445c0,3.033,2.468,5.5,5.5,5.5
		s5.5-2.467,5.5-5.5c0-0.269-0.026-0.531-0.063-0.79C56.801,35.735,54.513,33.684,51.75,33.684z"/>
</g>
</svg>
