<?xml version="1.0" encoding="iso-8859-1"?>
<!-- Generator: Adobe Illustrator 17.0.0, SVG Export Plug-In . SVG Version: 6.00 Build 0)  -->
<!DOCTYPE svg PUBLIC "-//W3C//DTD SVG 1.1//EN" "http://www.w3.org/Graphics/SVG/1.1/DTD/svg11.dtd">
<svg version="1.1" id="Capa_1" xmlns="http://www.w3.org/2000/svg" xmlns:xlink="http://www.w3.org/1999/xlink" x="0px" y="0px"
	 width="64px" height="64px" viewBox="0 0 64 64" style="enable-background:new 0 0 64 64;" xml:space="preserve">
<g>
	<path d="M62.369,27.897c-0.087-1.06-0.186-2.26-0.378-3.295c-0.134-0.724-0.428-1.688-1.422-1.688c-0.1,0-0.199,0.01-0.298,0.02
		c-0.062,0.006-0.123,0.014-0.224,0.016c-0.001,0-0.034-0.031-0.075-0.15c-0.292-0.836-1.517-1.876-3.087-3.148
		c-0.386-0.312-0.85-0.688-1.047-0.882c0.073-0.501,0.062-1.116-0.287-1.54c-0.162-0.198-0.467-0.434-0.992-0.434
		c-0.077,0-0.159,0.005-0.341,0.021c-0.38,0-1.14-0.156-2.191-0.373c-2.712-0.557-7.76-1.594-15.329-1.757
		c-11.021-0.218-19.682,7.735-20.039,8.07l-0.255,0.237c-0.453,0.219-1.882,0.742-6.251,1.601c-6.197,1.22-7.379,3.194-7.602,3.958
		c-0.495,0.369-1.296,1.25-1.423,2.286c-0.102,0.826-0.333,1.164-0.333,1.163L0.688,32.14v5.832l0.012,0.106
		c0.336,1.549,1.941,2.368,4.642,2.368c0.861,0,1.507-0.088,1.482-0.088c0.038-0.001,0.371-0.008,0.948-0.019
		c-0.059-0.163-0.113-0.328-0.159-0.497c-0.045-0.163-0.086-0.327-0.118-0.495c-0.076-0.396-0.119-0.803-0.119-1.221
		c0-3.584,2.916-6.5,6.5-6.5s6.5,2.916,6.5,6.5c0,0.324-0.032,0.639-0.077,0.95c-0.025,0.169-0.054,0.337-0.092,0.501
		c-0.039,0.17-0.08,0.338-0.132,0.503c8.117-0.174,18.445-0.403,26.444-0.605c-0.035-0.163-0.058-0.33-0.08-0.498
		c-0.022-0.165-0.035-0.331-0.044-0.499c-0.006-0.117-0.018-0.233-0.018-0.352c0-3.584,2.916-6.5,6.5-6.5
		c3.534,0,6.412,2.836,6.492,6.351c0.001,0.05,0.008,0.099,0.008,0.149c0,0.126-0.012,0.249-0.019,0.374
		c-0.01,0.178-0.027,0.354-0.051,0.528c1.528-0.251,2.676-1.056,3.341-2.358c1.137-2.226,0.557-5.24,0.15-5.879
		C62.577,30.444,62.467,29.091,62.369,27.897z"/>
	<path d="M8.831,40.316c0.847,1.947,2.785,3.309,5.044,3.309c2.34,0,4.333-1.464,5.128-3.523c0.063-0.164,0.119-0.332,0.167-0.503
		c0.046-0.164,0.084-0.332,0.115-0.502c0.056-0.316,0.091-0.64,0.091-0.972c0-3.038-2.462-5.5-5.5-5.5c-3.038,0-5.5,2.462-5.5,5.5
		c0,0.412,0.049,0.813,0.135,1.2c0.037,0.168,0.081,0.333,0.134,0.495C8.699,39.989,8.761,40.154,8.831,40.316z"/>
	<path d="M47.542,39.448c0.593,2.397,2.753,4.177,5.333,4.177c2.698,0,4.937-1.944,5.406-4.506c0.03-0.166,0.054-0.333,0.07-0.504
		c0.014-0.162,0.025-0.324,0.025-0.49c0-0.004-0.001-0.008-0.001-0.012c-0.006-3.032-2.466-5.488-5.499-5.488
		c-3.038,0-5.5,2.462-5.5,5.5c0,0.11,0.01,0.218,0.016,0.327c0.01,0.169,0.027,0.335,0.052,0.499
		C47.469,39.119,47.502,39.285,47.542,39.448z"/>
</g>
</svg>
