<?xml version="1.0" encoding="iso-8859-1"?>
<!-- Generator: Adobe Illustrator 17.0.0, SVG Export Plug-In . SVG Version: 6.00 Build 0)  -->
<!DOCTYPE svg PUBLIC "-//W3C//DTD SVG 1.1//EN" "http://www.w3.org/Graphics/SVG/1.1/DTD/svg11.dtd">
<svg version="1.1" id="Capa_1" xmlns="http://www.w3.org/2000/svg" xmlns:xlink="http://www.w3.org/1999/xlink" x="0px" y="0px"
	 width="64px" height="64px" viewBox="0 0 64 64" style="enable-background:new 0 0 64 64;" xml:space="preserve">
<g>
	<path d="M61,34.956h-6.75V18.965c0-2.761-2.239-5-5-5l-39.333-4c-2.761,0-5,2.239-5,5V45c0,2.761,2.239,5,5,5h4.57
		c1.981,6.434,7.979,11.125,15.055,11.125S42.615,56.434,44.596,50h4.654c1.582,0,2.976-0.75,3.892-1.897H61c1.105,0,2-0.895,2-2
		v-9.147C63,35.852,62.105,34.956,61,34.956z M42.474,50c-0.578,1.611-1.442,3.082-2.541,4.352L35.581,50l-3.625-3.625h11.285
		C43.149,47.639,42.886,48.853,42.474,50z M30.542,59.074V50v-2.211L32.753,50l5.766,5.766
		C36.345,57.648,33.58,58.854,30.542,59.074z M16.609,50c-0.412-1.147-0.675-2.361-0.767-3.625h11.285L23.503,50l-4.352,4.352
		C18.051,53.082,17.187,51.611,16.609,50z M28.542,42.961l-7.977-7.977c2.174-1.881,4.939-3.088,7.977-3.308V42.961z M39.933,36.398
		c1.881,2.174,3.087,4.938,3.308,7.977H31.956L39.933,36.398z M38.519,34.984l-7.978,7.977V31.676
		C33.58,31.896,36.345,33.102,38.519,34.984z M27.128,44.375H15.842c0.22-3.039,1.427-5.803,3.308-7.977L27.128,44.375z M26.331,50
		l2.211-2.211V50v9.074c-3.039-0.22-5.803-1.427-7.977-3.308L26.331,50z"/>
</g>
</svg>
