<?xml version="1.0" encoding="iso-8859-1"?>
<!-- Generator: Adobe Illustrator 17.0.0, SVG Export Plug-In . SVG Version: 6.00 Build 0)  -->
<!DOCTYPE svg PUBLIC "-//W3C//DTD SVG 1.1//EN" "http://www.w3.org/Graphics/SVG/1.1/DTD/svg11.dtd">
<svg version="1.1" id="Capa_1" xmlns="http://www.w3.org/2000/svg" xmlns:xlink="http://www.w3.org/1999/xlink" x="0px" y="0px"
	 width="64px" height="64px" viewBox="0 0 64 64" style="enable-background:new 0 0 64 64;" xml:space="preserve">
<g>
	<path d="M45.458,26.708c0,0-4.542-3.75-9.542-5.083c-5-1.333-16.25-0.458-18.417,0c-2.167,0.458-9.417,3.75-9.417,3.75
		S1.5,24.333,2.292,26.833c0.792,2.5-0.375,1.875-0.833,4.625c-0.458,2.75,1,4.208,1,4.208l1.25,0.208l0.167,0.594
		c1.782,0,3.299,0.077,4.577,0.189c-0.005-0.094-0.014-0.187-0.014-0.283c0-2.998,2.439-5.438,5.438-5.438s5.438,2.439,5.438,5.438
		c0,0.401-0.047,0.79-0.129,1.167h26.384c-0.083-0.376-0.129-0.766-0.129-1.167c0-2.998,2.439-5.438,5.438-5.438
		s5.438,2.439,5.438,5.438c0,0.401-0.047,0.79-0.129,1.167h3.9c0.458-0.75,1.458-0.792,1.458-0.792c1.042-0.75,1.042-3.667,1-4.292
		c-0.042-0.625-1.458-2.083-1.458-2.083C57.417,28.042,45.458,26.708,45.458,26.708z"/>
	<path d="M13.875,31.938c-2.451,0-4.438,1.987-4.438,4.438c0,0.132,0.028,0.256,0.039,0.385c0.198,2.267,2.08,4.052,4.399,4.052
		c2.044,0,3.748-1.39,4.263-3.271c0.102-0.374,0.175-0.76,0.175-1.167C18.312,33.924,16.326,31.938,13.875,31.938z"/>
	<path d="M50.875,31.938c-2.451,0-4.438,1.987-4.438,4.438c0,0.406,0.072,0.793,0.175,1.167c0.515,1.881,2.219,3.271,4.263,3.271
		s3.748-1.39,4.263-3.271c0.102-0.374,0.175-0.76,0.175-1.167C55.312,33.924,53.326,31.938,50.875,31.938z"/>
</g>
</svg>
