<?xml version="1.0" encoding="iso-8859-1"?>
<!-- Generator: Adobe Illustrator 17.0.0, SVG Export Plug-In . SVG Version: 6.00 Build 0)  -->
<!DOCTYPE svg PUBLIC "-//W3C//DTD SVG 1.1//EN" "http://www.w3.org/Graphics/SVG/1.1/DTD/svg11.dtd">
<svg version="1.1" id="Capa_1" xmlns="http://www.w3.org/2000/svg" xmlns:xlink="http://www.w3.org/1999/xlink" x="0px" y="0px"
	 width="64px" height="64px" viewBox="0 0 64 64" style="enable-background:new 0 0 64 64;" xml:space="preserve">
<g>
	<path d="M1.312,36.991c0.014,1.174,1.78,1.136,1.859,1.134c-0.086-0.424-0.132-0.863-0.132-1.313c0-3.653,2.972-6.625,6.625-6.625
		s6.625,2.972,6.625,6.625c0,0.765-0.137,1.497-0.377,2.181c7.372-0.484,30.583-0.311,31.564-0.202
		c0.124,0.014,0.379,0.011,0.732-0.005c-0.107-0.475-0.169-0.967-0.169-1.474c0-3.688,3-6.688,6.688-6.688
		c3.656,0,6.633,2.951,6.683,6.595l1.148-0.484c0.254-0.107,0.217-0.117-0.028-0.244c-0.284-0.147-0.457-0.6,0.281-1.909
		c0.931-1.652,0.065-2.849-0.49-3.389c-0.198-0.192-0.38-0.543-0.385-0.819c-0.062-4.014-1.59-5.398-2.376-5.845
		c-0.24-0.136-0.236-0.234,0.036-0.281c3.586-0.62,1.159-0.583,0.84-1.542c-0.333-1-2.5,0.083-3.625,0.375
		c-0.415,0.108-1.721,0.34-3.204,0.591c0.069-0.075,0.111-0.153,0.089-0.236c-0.06-0.231-0.13-0.414-0.197-0.556
		c-0.118-0.25-0.387-0.616-0.599-0.793c-0.263-0.221-0.69-0.44-1.303-0.338c-0.204,0.034-0.378,0.148-0.526,0.313
		c-0.031-0.049-0.062-0.099-0.091-0.138c-0.252-0.345-0.704-0.745-1.383-0.585c-0.784,0.185-1.125,2.055-1.262,3.188
		c-0.264,0.032-0.593,0.055-0.817,0.055h-4.25c0.872-1.11-0.141-1.795-0.948-1.849c-0.216-0.015-0.53,0.116-0.874,0.311
		c-0.203-0.343-0.567-0.55-0.895-0.58c-0.538-0.048-1.78,1.294-2.371,1.972c-0.039,0.045-0.063,0.095-0.081,0.145H27.102v-1.405
		c0-0.483-0.392-0.875-0.875-0.875c-0.483,0-0.875,0.392-0.875,0.875v1.405h-1.958c-0.276,0-0.335-0.153-0.134-0.342
		c1.268-1.191,5.388-5.11,5.176-5.533c-0.144-0.287,0.029-0.739,0.202-1.072c0.127-0.245,0.104-0.595-0.126-0.748
		c-0.39-0.261-1.076-0.567-2.044-0.443c-0.274,0.035-0.706,0.158-0.954,0.279c-2.099,1.028-7.265,5.482-8.702,6.736
		c-0.208,0.182-0.599,0.347-0.875,0.37C3.7,24.857,1.975,28.842,1.752,30.252c-0.043,0.273-0.212,0.629-0.385,0.844
		C0.322,32.4,0.926,34.965,1.24,36.024C1.319,36.289,1.309,36.715,1.312,36.991z"/>
	<path d="M43.664,22.003c0-1.123-0.602-2.034-1.344-2.034c-0.451,0-0.848,0.339-1.092,0.855c-0.192-0.33-0.47-0.543-0.783-0.543
		c-0.578,0-1.047,0.71-1.047,1.585c0,0.875,0.469,0.571,1.047,0.571c0.225,0,0.431,0.044,0.602,0.049
		c0.174,0.489,0.675,0.249,1.273,0.249C43.063,22.735,43.664,23.126,43.664,22.003z"/>
	<path d="M49.722,21.021c0.225,0,0.431,0.044,0.602,0.049c0.174,0.489,0.675,0.248,1.273,0.248c0.742,0,1.344,0.391,1.344-0.732
		s-0.602-2.034-1.344-2.034c-0.451,0-0.848,0.339-1.092,0.855c-0.192-0.33-0.47-0.543-0.783-0.543c-0.578,0-1.047,0.71-1.047,1.585
		C48.675,21.326,49.143,21.021,49.722,21.021z"/>
	<path d="M9.664,42.438c2.297,0,4.269-1.379,5.143-3.352c0.308-0.696,0.482-1.463,0.482-2.273c0-3.107-2.518-5.625-5.625-5.625
		s-5.625,2.518-5.625,5.625c0,0.418,0.049,0.823,0.135,1.215C4.73,40.549,6.975,42.438,9.664,42.438z"/>
	<path d="M54.727,31.625c-3.141,0-5.688,2.546-5.688,5.688c0,0.488,0.068,0.959,0.184,1.411C49.851,41.181,52.074,43,54.727,43
		c3.041,0,5.518-2.389,5.673-5.392c0.005-0.099,0.015-0.196,0.015-0.296C60.414,34.171,57.868,31.625,54.727,31.625z"/>
</g>
</svg>
