<?xml version="1.0" encoding="iso-8859-1"?>
<!-- Generator: Adobe Illustrator 17.0.0, SVG Export Plug-In . SVG Version: 6.00 Build 0)  -->
<!DOCTYPE svg PUBLIC "-//W3C//DTD SVG 1.1//EN" "http://www.w3.org/Graphics/SVG/1.1/DTD/svg11.dtd">
<svg version="1.1" id="Capa_1" xmlns="http://www.w3.org/2000/svg" xmlns:xlink="http://www.w3.org/1999/xlink" x="0px" y="0px"
	 width="64px" height="64px" viewBox="0 0 64 64" style="enable-background:new 0 0 64 64;" xml:space="preserve">
<g>
	<path d="M1.385,37.333c0.775,0.153,1.958,0.27,3.4,0.36c0.533-2.139,2.455-3.735,4.757-3.735c2.394,0,4.388,1.722,4.823,3.991
		c7.228,0.046,14.552-0.116,14.552-0.116c0.667-2.667,0.167-13.167-0.417-14s-4.75-0.833-7.75,0s-4.833,4.75-8.083,4.5
		S2.833,29.583,2.25,30.5c-0.583,0.917,0,2.917,0,2.917C0.833,34.25,1.385,37.333,1.385,37.333z"/>
	<path d="M48.542,33.958c2.397,0,4.393,1.727,4.824,4H62V21.667H30.5v16.292h13.218C44.149,35.685,46.145,33.958,48.542,33.958z"/>
	<path d="M9.542,34.958c-1.77,0-3.247,1.181-3.733,2.792c-0.108,0.358-0.184,0.731-0.184,1.124c0,2.163,1.754,3.917,3.917,3.917
		c2.163,0,3.917-1.754,3.917-3.917c0-0.323-0.05-0.633-0.124-0.933C12.914,36.232,11.381,34.958,9.542,34.958z"/>
	<path d="M52.458,38.875c0-0.317-0.048-0.621-0.119-0.917c-0.414-1.719-1.952-3-3.797-3c-1.846,0-3.383,1.281-3.798,3
		c-0.071,0.295-0.119,0.599-0.119,0.917c0,2.163,1.754,3.917,3.917,3.917C50.705,42.792,52.458,41.038,52.458,38.875z"/>
</g>
</svg>
