<?xml version="1.0" encoding="iso-8859-1"?>
<!-- Generator: Adobe Illustrator 17.0.0, SVG Export Plug-In . SVG Version: 6.00 Build 0)  -->
<!DOCTYPE svg PUBLIC "-//W3C//DTD SVG 1.1//EN" "http://www.w3.org/Graphics/SVG/1.1/DTD/svg11.dtd">
<svg version="1.1" id="Capa_1" xmlns="http://www.w3.org/2000/svg" xmlns:xlink="http://www.w3.org/1999/xlink" x="0px" y="0px"
	 width="64px" height="64px" viewBox="0 0 64 64" style="enable-background:new 0 0 64 64;" xml:space="preserve">
<g>
	<path d="M61.781,36.219c-0.259-0.121-0.236-0.605-0.059-1.128c0.253-0.748,0.455-1.878,0.028-3.09
		c-0.516-1.463-2.603-2.363-3.853-2.782c-0.524-0.176-1.09-0.709-1.251-1.237l-1.417-4.649c-0.161-0.528-0.739-0.98-1.29-1.009
		l-14.565-0.769c-0.552-0.029-1.524-0.102-1.798,0.378c-1.073,1.882-1.016,8.987-0.887,13.07H7.438c-0.552,0-1,0.448-1,1v2.5
		c0,0.552,0.447,0.979,0.999,0.954l6.428-0.298c0.561-1.613,2.08-2.781,3.881-2.781c1.668,0,3.1,1,3.749,2.427l16.674-0.773
		c2.549,0.17,8.26,0.534,13.326,0.743c0.664-1.483,2.148-2.523,3.875-2.523c1.777,0,3.297,1.098,3.932,2.649
		c0.641-0.028,1.121-0.076,1.386-0.149c1.19-0.327,1.601-0.867,1.705-1.343C62.511,36.868,62.04,36.34,61.781,36.219z"/>
	<path d="M34.5,33.5c0.09,0,0.172-0.029,0.255-0.051c0.049,0.022,0.098,0.051,0.151,0.051c0.328,0,0.594-0.448,0.594-1v-3V18.875
		c0-0.552-0.266-1-0.594-1s-0.594,0.448-0.594,1V28.5H2.625c-0.552,0-1,0.448-1,1v3c0,0.552,0.448,1,1,1H34.5z"/>
	<path d="M20.87,40.5c0-0.606-0.18-1.167-0.479-1.647c-0.552-0.885-1.526-1.478-2.646-1.478c-1.222,0-2.269,0.708-2.782,1.73
		c-0.212,0.422-0.343,0.891-0.343,1.395c0,1.726,1.399,3.125,3.125,3.125S20.87,42.226,20.87,40.5z"/>
	<path d="M58.62,40.5c0-0.574-0.162-1.105-0.423-1.573c-0.555-0.996-1.606-1.677-2.827-1.677c-1.176,0-2.197,0.631-2.768,1.567
		c-0.3,0.492-0.482,1.065-0.482,1.683c0,1.795,1.455,3.25,3.25,3.25S58.62,42.295,58.62,40.5z"/>
</g>
</svg>
