<?xml version="1.0" encoding="iso-8859-1"?>
<!-- Generator: Adobe Illustrator 17.0.0, SVG Export Plug-In . SVG Version: 6.00 Build 0)  -->
<!DOCTYPE svg PUBLIC "-//W3C//DTD SVG 1.1//EN" "http://www.w3.org/Graphics/SVG/1.1/DTD/svg11.dtd">
<svg version="1.1" id="Capa_1" xmlns="http://www.w3.org/2000/svg" xmlns:xlink="http://www.w3.org/1999/xlink" x="0px" y="0px"
	 width="64px" height="64px" viewBox="0 0 64 64" style="enable-background:new 0 0 64 64;" xml:space="preserve">
<g>
	<path d="M6.333,41.167c0,0,0.098,0.001,0.279,0.003c-0.123-0.482-0.196-0.984-0.196-1.503c0-3.354,2.729-6.083,6.083-6.083
		s6.083,2.729,6.083,6.083c0,0.564-0.083,1.109-0.228,1.628c8.211,0.076,19.056,0.152,27.321,0.127
		c-0.168-0.556-0.26-1.144-0.26-1.754c0-3.354,2.729-6.083,6.083-6.083s6.083,2.729,6.083,6.083c0,0.526-0.074,1.034-0.2,1.521
		c0.072-0.007,0.142-0.014,0.2-0.021c4.667-0.583,5.25-3.667,5.167-5.583s-1.417-0.5-1.5-2.083c-0.083-1.583-3.083-4.25-3.083-4.25
		c2.417-2.667-1.75-1-1.75-1c-1.25-1.833-9.083-5.333-9.083-5.333s-0.167-1.75-0.667-1.198s-2.25,1.115-2.25,1.115
		c-9.917-2.333-15.667-0.333-17.5,0c-1.833,0.333-8.083,5.417-8.083,5.417C3.5,28.833,3.083,34.583,3.083,34.583
		c-2.75,1.583-1.25,5.167-1.25,5.167C3.083,41.417,6.333,41.167,6.333,41.167z"/>
	<path d="M12.5,34.583c-2.807,0-5.083,2.276-5.083,5.083c0,0.532,0.104,1.034,0.256,1.516c0.648,2.062,2.552,3.567,4.827,3.567
		c2.238,0,4.117-1.456,4.796-3.466c0.172-0.511,0.287-1.049,0.287-1.618C17.583,36.859,15.307,34.583,12.5,34.583z"/>
	<path d="M51.5,34.583c-2.807,0-5.083,2.276-5.083,5.083c0,0.618,0.127,1.202,0.329,1.75c0.715,1.941,2.565,3.333,4.755,3.333
		c2.247,0,4.132-1.468,4.804-3.491c0.167-0.504,0.28-1.033,0.28-1.593C56.583,36.859,54.307,34.583,51.5,34.583z"/>
</g>
</svg>
