<?xml version="1.0" encoding="iso-8859-1"?>
<!-- Generator: Adobe Illustrator 17.0.0, SVG Export Plug-In . SVG Version: 6.00 Build 0)  -->
<!DOCTYPE svg PUBLIC "-//W3C//DTD SVG 1.1//EN" "http://www.w3.org/Graphics/SVG/1.1/DTD/svg11.dtd">
<svg version="1.1" id="Capa_1" xmlns="http://www.w3.org/2000/svg" xmlns:xlink="http://www.w3.org/1999/xlink" x="0px" y="0px"
	 width="64px" height="64px" viewBox="0 0 64 64" style="enable-background:new 0 0 64 64;" xml:space="preserve">
<g>
	<path d="M53.005,25.737c-0.673-0.047-1.254-0.087-1.543-0.169c-2.028-0.576-9.254-0.92-10.026-0.956
		c-1.242-0.349-2.326-1.12-3.578-2.009c-2.528-1.797-5.674-4.034-11.99-4.166l-0.438-0.004c-3.054,0-6.459,0.64-9.681,1.508
		c-1.422-0.544-3.764-1.378-5.074-1.505c-0.661-0.063-0.999,0.26-1.139,0.459c-0.483,0.692-0.144,1.991,0.217,2.951
		c-3.827,1.387-6.6,2.696-6.844,2.812l-0.145,0.104c-0.698,0.722-0.393,1.756-0.146,2.587c0.075,0.257,0.151,0.51,0.196,0.749
		c0.09,0.483-0.961,0.792-0.972,0.794l-0.717,0.189l0.954,1.281l-0.795,1.115l0.879,1.132c-0.556,0.105-1.092,0.34-1.235,0.844
		c-0.195,0.686,0.382,1.389,1.932,2.351c0.771,0.478,1.586,0.767,2.495,0.901c-0.034-0.167-0.057-0.338-0.078-0.509
		c-0.021-0.174-0.032-0.351-0.04-0.528c-0.004-0.093-0.014-0.184-0.014-0.278c0-3.68,2.994-6.673,6.673-6.673
		s6.673,2.994,6.673,6.673c0,0.545-0.073,1.072-0.197,1.579c-0.041,0.166-0.084,0.331-0.136,0.492
		c-0.051,0.156-0.107,0.309-0.169,0.46c3.168,0.852,6.992,1.065,9.907,1.065c2.052,0,3.451-0.101,3.474-0.104h17.075
		c-0.112-0.161-0.215-0.329-0.312-0.5c-0.092-0.162-0.175-0.329-0.253-0.499c-0.376-0.822-0.591-1.733-0.591-2.695
		c0-3.59,2.921-6.511,6.511-6.511s6.511,2.921,6.511,6.511c0,0.823-0.16,1.608-0.44,2.334c-0.082,0.212-0.174,0.419-0.276,0.62
		c-0.107,0.21-0.224,0.414-0.352,0.609c2.332-0.458,3.014-2.005,3.069-2.152c0.734-3.269,0.429-5.838-0.91-7.635
		C59.404,26.179,55.398,25.902,53.005,25.737z"/>
	<path d="M6.404,36.789c0.624,2.455,2.843,4.274,5.492,4.274c2.333,0,4.335-1.409,5.207-3.422c0.065-0.151,0.122-0.305,0.174-0.462
		c0.053-0.16,0.098-0.323,0.137-0.489c0.098-0.418,0.155-0.852,0.155-1.3c0-3.133-2.54-5.673-5.673-5.673s-5.673,2.54-5.673,5.673
		c0,0.132,0.011,0.261,0.02,0.391c0.012,0.171,0.031,0.34,0.058,0.506C6.328,36.457,6.362,36.624,6.404,36.789z"/>
	<path d="M53.878,40.698c1.62,0,3.073-0.704,4.081-1.817c0.153-0.169,0.297-0.346,0.429-0.533c0.118-0.167,0.229-0.34,0.327-0.52
		c0.429-0.784,0.674-1.684,0.674-2.641c0-3.044-2.467-5.511-5.511-5.511c-3.044,0-5.511,2.467-5.511,5.511
		c0,0.98,0.258,1.898,0.706,2.695c0.097,0.173,0.205,0.339,0.319,0.499c0.125,0.175,0.26,0.341,0.404,0.5
		C50.805,39.995,52.258,40.698,53.878,40.698z"/>
</g>
</svg>
