<?xml version="1.0" encoding="iso-8859-1"?>
<!-- Generator: Adobe Illustrator 17.0.0, SVG Export Plug-In . SVG Version: 6.00 Build 0)  -->
<!DOCTYPE svg PUBLIC "-//W3C//DTD SVG 1.1//EN" "http://www.w3.org/Graphics/SVG/1.1/DTD/svg11.dtd">
<svg version="1.1" id="Capa_1" xmlns="http://www.w3.org/2000/svg" xmlns:xlink="http://www.w3.org/1999/xlink" x="0px" y="0px"
	 width="64px" height="64px" viewBox="0 0 64 64" style="enable-background:new 0 0 64 64;" xml:space="preserve">
<g>
	<path d="M7.79,46.219c0.11,0.176,0.235,0.339,0.365,0.5c0.947,1.179,2.383,1.948,4.012,1.948c1.617,0,3.042-0.758,3.989-1.921
		c0.131-0.16,0.259-0.32,0.37-0.496c0.101-0.159,0.187-0.327,0.27-0.497c0.334-0.683,0.537-1.441,0.537-2.253
		c0-2.853-2.313-5.167-5.167-5.167C9.313,38.333,7,40.647,7,43.5c0,0.798,0.196,1.544,0.519,2.219
		C7.601,45.891,7.69,46.058,7.79,46.219z"/>
	<path d="M46.462,47.091c0.939,0.969,2.249,1.575,3.705,1.575c1.593,0,3-0.737,3.948-1.87c0.148-0.177,0.291-0.356,0.415-0.552
		c0.11-0.175,0.207-0.358,0.296-0.546c0.317-0.669,0.508-1.409,0.508-2.199c0-2.853-2.313-5.167-5.167-5.167
		C47.313,38.333,45,40.647,45,43.5c0,0.946,0.273,1.822,0.717,2.585c0.102,0.174,0.209,0.343,0.329,0.503
		C46.178,46.762,46.311,46.935,46.462,47.091z"/>
	<path d="M62.583,32.417l-5.417,1.667c0,0-0.591,0.433-1.264,0.916c-0.569-0.206-1.197-0.44-1.909-0.716
		c-6.152-2.383-14.065-4.048-19.242-4.048c-0.65,0-1.256,0.027-1.799,0.08c-2.89,0.279-6.867,1.719-11.822,4.277
		c-0.204,0.106-0.339,0.176-0.39,0.198c-1.431,0.613-3.218,0.911-5.464,0.911c-1.703,0-3.374-0.173-4.716-0.312
		c-0.742-0.077-1.393-0.144-1.911-0.17c-0.164-0.008-0.31-0.012-0.439-0.012c-1.053,0-1.362,0.267-1.593,0.792
		c-0.1,0.228-0.213,0.486-1.221,0.769c-2.675,0.75-4.532,2.845-4.609,2.934l-0.124,0.141v4.272l0.269,0.14
		c0.349,0.182,0.476,0.313,0.511,0.345c-0.422,0.374-0.95,0.935-0.729,1.519c0.221,0.582,0.982,0.599,1.068,0.599h5.135
		c-0.1-0.162-0.192-0.329-0.277-0.5c-0.081-0.163-0.154-0.329-0.22-0.5C6.152,45.029,6,44.283,6,43.5c0-3.4,2.766-6.167,6.167-6.167
		c3.4,0,6.167,2.766,6.167,6.167c0,0.8-0.158,1.563-0.437,2.265c-0.067,0.17-0.143,0.335-0.225,0.497
		c-0.086,0.171-0.18,0.336-0.28,0.497l27.095,0.303c0,0,0.249,0.007,0.666,0.014c-0.117-0.163-0.226-0.332-0.326-0.506
		c-0.095-0.164-0.181-0.333-0.261-0.506C44.206,45.282,44,44.416,44,43.5c0-3.4,2.766-6.167,6.167-6.167
		c3.4,0,6.167,2.766,6.167,6.167c0,0.688-0.118,1.348-0.327,1.967c-0.065,0.194-0.14,0.383-0.224,0.568
		c-0.087,0.192-0.184,0.379-0.29,0.56c0.999-0.186,1.677-0.423,2.019-0.713c1.667-1.411,3.54-8.161,3.777-9.036l0.022-0.117
		l-0.671-0.117l-0.296-0.096c0.062-0.166,0.19-0.229,0.132-0.232c-0.102,0-0.272-0.013-0.546-0.063
		c0.768-0.971,2.071-1.597,2.653-1.888C63.417,33.917,62.583,32.417,62.583,32.417z"/>
</g>
</svg>
