<?xml version="1.0" encoding="iso-8859-1"?>
<!-- Generator: Adobe Illustrator 17.0.0, SVG Export Plug-In . SVG Version: 6.00 Build 0)  -->
<!DOCTYPE svg PUBLIC "-//W3C//DTD SVG 1.1//EN" "http://www.w3.org/Graphics/SVG/1.1/DTD/svg11.dtd">
<svg version="1.1" id="Capa_1" xmlns="http://www.w3.org/2000/svg" xmlns:xlink="http://www.w3.org/1999/xlink" x="0px" y="0px"
	 width="64px" height="64px" viewBox="0 0 64 64" style="enable-background:new 0 0 64 64;" xml:space="preserve">
<g>
	<path d="M12.789,29.063C7.383,29.063,3,33.446,3,38.853c0,5.407,4.383,9.789,9.789,9.789c3.948,0,7.342-2.342,8.89-5.709
		l2.326,1.793c0,0,17.091,0.122,18.029-0.408c0,0-2.121-5.792,0.571-8.24c0.284-0.258,0.64-0.552,1.032-0.864
		c-0.451,1.125-0.706,2.351-0.706,3.638c0,5.407,4.383,9.789,9.789,9.789c5.407,0,9.789-4.383,9.789-9.789
		c0-5.407-4.383-9.789-9.789-9.789c-0.088,0-0.173,0.011-0.261,0.013c0.707-0.459,1.158-0.747,1.158-0.747l-0.734-0.653
		c0,0,2.121-0.489,1.632-1.55s-5.629-7.424-5.629-7.424s0.911-1.958-0.972-3.345l-0.904,1.958c0,0-2.305-1.591-3.222-1.285
		c-0.918,0.306-2.294,0.459-2.723,1.132l-0.428,0.398c0,0-0.122,0.704,0.581,1.744c0,0,7.067,2.172,7.403,3.763
		c0,0,0.49,1.01-1.621,1.254l-0.428,0.551l-1.132,0.061l-2.05-4.681c0,0-1.958,0.52-2.967,1.315l0.153,0.795
		c0,0-8.229-5.598-15.969,2.692c0,0-5.721,1.652-9.728-3.426c0,0-0.061-1.652-9.728-1.346l0.673,0.704c0,0-0.673,0.061-0.948,0.489
		c-0.275,0.428,0.153,0.887,2.356,0.887c0,0,4.987,5.69,8.811,5.354l5.445,2.631l2.417,4.13c0,0,0.004,0.354,0.029,0.898
		c-0.561,0.119-1.19,0.252-1.857,0.393C20.783,31.875,17.118,29.063,12.789,29.063z M52.721,32.063c3.744,0,6.789,3.046,6.789,6.789
		c0,3.744-3.046,6.789-6.789,6.789c-3.744,0-6.789-3.046-6.789-6.789C45.932,35.109,48.977,32.063,52.721,32.063z M12.789,45.642
		C9.046,45.642,6,42.596,6,38.853c0-3.744,3.046-6.789,6.789-6.789c2.878,0,5.337,1.803,6.323,4.336
		c-3.6,0.766-7.173,1.528-7.173,1.528l0.461,2.538l7.049-0.311C18.842,43.277,16.088,45.642,12.789,45.642z M24.547,39.929
		c0.2,0.68,0.461,1.22,0.804,1.452l-3.146,0.123c0.135-0.482,0.237-0.977,0.298-1.486L24.547,39.929z"/>
</g>
</svg>
