<?xml version="1.0" encoding="iso-8859-1"?>
<!-- Generator: Adobe Illustrator 17.0.0, SVG Export Plug-In . SVG Version: 6.00 Build 0)  -->
<!DOCTYPE svg PUBLIC "-//W3C//DTD SVG 1.1//EN" "http://www.w3.org/Graphics/SVG/1.1/DTD/svg11.dtd">
<svg version="1.1" id="Capa_1" xmlns="http://www.w3.org/2000/svg" xmlns:xlink="http://www.w3.org/1999/xlink" x="0px" y="0px"
	 width="64px" height="64px" viewBox="0 0 64 64" style="enable-background:new 0 0 64 64;" xml:space="preserve">
<g>
	<path d="M58.286,35.899c1.144-0.473,1.381-2.452-0.137-2.846c-1.158-0.301-2.338-0.395-3.509-0.308
		c2.524-2.327,3.714-4.153,1.86-4.559c-1.609-0.352-2.926-0.973-4.111-1.621c0.318-3.982,0.643-9.789-4.889-9.691
		c-1.932,0.034-1.936,3.034,0,3c2.44-0.043,2.327,2.869,2.074,5.129c-1.997-0.986-3.965-1.354-6.907,0.496
		C36.833,29.167,26,28.833,17.333,24.833c-8.667-4-8.833-1-8.833-1S-0.845,37.076,5.5,32c2.314-1.851,5.745-1.616,9.494-0.318
		c-4.309-0.858-9.232,0.371-12.93,3.883c-0.938,0.89-0.302,2.124,0.64,2.455c-1.231,1.79-1.954,3.956-1.954,6.293
		c0,6.144,4.981,11.125,11.125,11.125c6.105,0,11.057-4.919,11.119-11.01c0.822,0.105,1.696-0.367,1.631-1.428
		c-0.216-3.526-1.569-6.274-3.569-8.212c0.045-0.082,0.086-0.167,0.13-0.25c3.951,2.204,7.787,4.955,10.651,7.171
		c-0.049,0.063-0.096,0.127-0.133,0.2c-0.333,0.667-0.667,1.333-1,2c-0.366,0.731-0.201,1.619,0.538,2.052
		c0.67,0.393,1.687,0.193,2.052-0.538c0.305-0.61,0.61-1.22,0.915-1.83c1.531,1.25,2.457,2.073,2.457,2.073s0.946-0.592,2.428-1.555
		c-0.132,0.649-0.209,1.319-0.22,2.014c-0.023,1.47,1.7,1.819,2.544,1.056c0.89,5.252,5.45,9.256,10.956,9.256
		c6.144,0,11.125-4.981,11.125-11.125C63.5,41.343,61.414,37.868,58.286,35.899z M11.875,52.438c-4.48,0-8.125-3.645-8.125-8.125
		c0-4.48,3.645-8.125,8.125-8.125c1.496,0,2.895,0.414,4.1,1.122c-1.526,2.23-3.218,4.351-5.035,6.38
		c-1.287,1.436,0.828,3.565,2.121,2.121c1.858-2.074,3.606-4.242,5.189-6.52c1.092,1.384,1.75,3.126,1.75,5.021
		C20,48.793,16.355,52.438,11.875,52.438z M50.726,41.1c-0.816-0.937-1.682-1.835-2.554-2.728c0.723-0.44,1.518-0.77,2.366-0.967
		C50.592,38.637,50.649,39.869,50.726,41.1z M52.375,53.438c-4.48,0-8.125-3.645-8.125-8.125c0-1.868,0.64-3.586,1.704-4.959
		c2.093,2.132,4.125,4.303,5.501,7.029c0.833,1.651,2.965,0.391,2.742-1.156c-0.429-2.968-0.576-5.958-0.692-8.951
		c3.946,0.552,6.996,3.941,6.996,8.037C60.5,49.793,56.855,53.438,52.375,53.438z"/>
</g>
</svg>
