<?xml version="1.0" encoding="iso-8859-1"?>
<!-- Generator: Adobe Illustrator 17.0.0, SVG Export Plug-In . SVG Version: 6.00 Build 0)  -->
<!DOCTYPE svg PUBLIC "-//W3C//DTD SVG 1.1//EN" "http://www.w3.org/Graphics/SVG/1.1/DTD/svg11.dtd">
<svg version="1.1" id="Capa_1" xmlns="http://www.w3.org/2000/svg" xmlns:xlink="http://www.w3.org/1999/xlink" x="0px" y="0px"
	 width="64px" height="64px" viewBox="0 0 64 64" style="enable-background:new 0 0 64 64;" xml:space="preserve">
<g>
	<path d="M50.142,25.683c-1.061,0.356-2.031,0.881-2.896,1.534l-5.035-5.727l-2.249-2.558l-1.324-1.506
		c-0.166,0.079-0.303,0.163-0.439,0.247c-1.072-1.386-2.246-2.625-3.866-3.438c-2.196-1.101-4.818-0.406-7.08-1.298
		c-1.443-0.569-2.062,1.739-0.639,2.3c1.419,0.56,2.854,0.624,4.365,0.696c2.767,0.133,4.296,1.745,5.82,3.844
		c0.097,0.134,0.211,0.235,0.331,0.315c-0.133,0.36-0.775,0.514-0.775,0.514c-2.449-5.995-7.645-0.19-12.469,4.913
		c-1.429,0.166-2.771,0.57-3.726,1.554c-1.17,1.206-2.976,3.101-4.127,0.825c-0.476-0.94-1.472-1.125-2.407-1.249
		c-0.862-0.115-1.233,0.589-1.124,1.264c-4.139-2.578-9.378,1.4-9.378,1.4l1.04,0.519c-1.866,1.344-3.085,3.519-3.085,5.982
		c0,4.084,3.338,7.395,7.456,7.395c2.415,0,4.556-1.144,5.918-2.909c3.502,0.642,11.662,0.345,15.247,0.345
		c4.329,0,4.77-2.624,4.77-2.624s4.329-13.676,4.53-14.909c0.2-1.232,1.042,0.278,1.042,0.278l1.323-0.716
		c0,0,2.263,2.581,4.83,5.46c-0.765,0.767-1.414,1.654-1.907,2.651c-1.188,2.404-1.365,5.125-0.499,7.662
		c0.142,0.416,0.53,0.677,0.946,0.677c0.107,0,0.216-0.018,0.323-0.054c0.522-0.178,0.802-0.747,0.623-1.27
		c-0.693-2.029-0.551-4.206,0.399-6.13c0.378-0.765,0.869-1.45,1.447-2.046c0.155,0.173,0.31,0.345,0.464,0.517
		c-1.346,1.375-2.178,3.247-2.178,5.315c0,4.216,3.446,7.633,7.696,7.633c4.251,0,7.696-3.418,7.696-7.633s-3.446-7.633-7.696-7.633
		c-1.671,0-3.213,0.534-4.474,1.431l-0.468-0.533c0.665-0.484,1.407-0.872,2.212-1.142c4.253-1.426,8.884,0.839,10.323,5.054
		c0.179,0.522,0.746,0.801,1.27,0.623c0.522-0.178,0.802-0.747,0.623-1.27C61.201,26.733,55.435,23.905,50.142,25.683z
		 M7.567,31.529c0.312-0.068,0.634-0.111,0.966-0.111c1.292,0,2.447,0.554,3.262,1.423c0.735,0.784,1.194,1.823,1.194,2.972
		c0,2.423-1.999,4.395-4.456,4.395s-4.456-1.971-4.456-4.395C4.077,33.718,5.574,31.967,7.567,31.529z M15.867,37.115
		c0.076-0.423,0.122-0.857,0.122-1.302c0-1.347-0.369-2.606-1.003-3.693l0.282-0.064C17.963,35.973,16.594,36.897,15.867,37.115z
		 M53.509,30.822c2.59,0,4.696,2.079,4.696,4.633c0,2.555-2.107,4.633-4.696,4.633c-2.59,0-4.696-2.078-4.696-4.633
		c0-1.184,0.466-2.253,1.209-3.073c1.801,1.971,3.22,3.464,3.408,3.491c0.561,0.079,0.762-0.755,0.762-0.755l-3.152-3.585
		C51.759,31.09,52.601,30.822,53.509,30.822z"/>
</g>
</svg>
