<?xml version="1.0" encoding="iso-8859-1"?>
<!-- Generator: Adobe Illustrator 17.0.0, SVG Export Plug-In . SVG Version: 6.00 Build 0)  -->
<!DOCTYPE svg PUBLIC "-//W3C//DTD SVG 1.1//EN" "http://www.w3.org/Graphics/SVG/1.1/DTD/svg11.dtd">
<svg version="1.1" id="Capa_1" xmlns="http://www.w3.org/2000/svg" xmlns:xlink="http://www.w3.org/1999/xlink" x="0px" y="0px"
	 width="64px" height="64px" viewBox="0 0 64 64" style="enable-background:new 0 0 64 64;" xml:space="preserve">
<g>
	<path d="M2.167,43.083c1.25,0.333,2.875,0.417,2.875,0.417H5.47c-0.378-0.743-0.595-1.58-0.595-2.469
		c0-3.016,2.453-5.469,5.469-5.469s5.469,2.453,5.469,5.469c0,0.884-0.216,1.718-0.59,2.458l29.42-0.217
		c-0.309-0.685-0.486-1.442-0.486-2.241c0-3.016,2.453-5.469,5.469-5.469s5.469,2.453,5.469,5.469c0,0.623-0.11,1.22-0.303,1.779
		c2.734-0.397,6.532-0.991,7.428-1.341c1.438-0.562,1.062-5.125,1.062-5.125s-1.188-0.281-1.188-1.438s0-3.125,0-3.125
		s-1.062,0-0.469-0.594s-0.969-0.531-0.969-0.531s-3.281,0.969-5.25-0.344s-9.344-3.688-9.344-3.688v-0.764
		c-1.281-0.264-2.5,0.201-2.5,0.201c-5.094-0.469-9.906,0-12.75,0.219s-9.656,4.344-10.625,4.938S17.458,32,13.792,32
		c-3.667,0-5.042,1.125-5.042,1.125c-7.5,1.708-6.667,3.542-7.208,4.375C1,38.333,0.917,42.333,0.917,42.333
		C2.458,42.458,2.167,43.083,2.167,43.083z"/>
	<path d="M10.344,36.562c-2.468,0-4.469,2.001-4.469,4.469c0,0.913,0.277,1.761,0.747,2.469c0.801,1.204,2.167,2,3.722,2
		c1.556,0,2.923-0.797,3.723-2.002c0.469-0.707,0.746-1.554,0.746-2.466C14.812,38.563,12.812,36.562,10.344,36.562z"/>
	<path d="M49.625,36.562c-2.468,0-4.469,2.001-4.469,4.469c0,0.817,0.236,1.573,0.619,2.232c0.774,1.331,2.199,2.236,3.85,2.236
		c1.768,0,3.281-1.035,4.006-2.524c0.287-0.59,0.463-1.244,0.463-1.945C54.094,38.563,52.093,36.562,49.625,36.562z"/>
</g>
</svg>
