<?xml version="1.0" encoding="iso-8859-1"?>
<!-- Generator: Adobe Illustrator 17.0.0, SVG Export Plug-In . SVG Version: 6.00 Build 0)  -->
<!DOCTYPE svg PUBLIC "-//W3C//DTD SVG 1.1//EN" "http://www.w3.org/Graphics/SVG/1.1/DTD/svg11.dtd">
<svg version="1.1" id="Capa_1" xmlns="http://www.w3.org/2000/svg" xmlns:xlink="http://www.w3.org/1999/xlink" x="0px" y="0px"
	 width="64px" height="64px" viewBox="0 0 64 64" style="enable-background:new 0 0 64 64;" xml:space="preserve">
<g>
	<path d="M62.406,33.591c0,0-0.156-2.559-0.469-3.497s-0.312-0.938,0.156-1.531s-1.375-0.188-1.688-0.125s-0.188,0.281-0.188,0.281
		c-3.625,0.156-11.938-4.5-18.531-5.156s-13.031-0.031-15.406,0.531s-10.188,4.781-11.062,5s-0.5-0.219-0.5-0.219
		C10.219,29.062,2.5,32.906,2.5,32.906c-0.312,0.219-0.562,1.5-0.562,1.5l0.156,0.438c-1.281,1.188-0.906,3.688-0.906,3.688
		l0.627-0.219c0.221,0.406,0.279,1.312,0.279,1.312c-1.062,0.5-0.281,0.938-0.281,0.938s0.469-0.406,2.375,0.188
		c0.736,0.229,2.376,0.309,4.112,0.321c-0.244-0.616-0.383-1.285-0.383-1.987c0-2.987,2.43-5.417,5.417-5.417
		s5.417,2.43,5.417,5.417c0,0.649-0.121,1.269-0.331,1.847l27.812-0.047c-0.2-0.564-0.314-1.168-0.314-1.8
		c0-2.987,2.43-5.417,5.417-5.417s5.417,2.43,5.417,5.417c0,0.556-0.085,1.093-0.241,1.598c2.768-0.64,5.991-1.088,5.991-1.088
		l0.594-0.781c0,0,0.469-3.344,0-3.875S62.406,33.591,62.406,33.591z"/>
	<path d="M13.333,43.5c1.777,0,3.298-1.055,3.999-2.568c0.261-0.564,0.417-1.186,0.417-1.849c0-2.439-1.977-4.417-4.417-4.417
		c-2.439,0-4.417,1.977-4.417,4.417c0,0.718,0.188,1.387,0.492,1.986C10.138,42.506,11.612,43.5,13.333,43.5z"/>
	<path d="M51.333,43.5c1.756,0,3.26-1.033,3.971-2.517c0.277-0.577,0.445-1.217,0.445-1.9c0-2.439-1.977-4.417-4.417-4.417
		c-2.439,0-4.417,1.977-4.417,4.417c0,0.642,0.144,1.248,0.39,1.798C47.996,42.422,49.536,43.5,51.333,43.5z"/>
</g>
</svg>
