<?xml version="1.0" encoding="iso-8859-1"?>
<!-- Generator: Adobe Illustrator 17.0.0, SVG Export Plug-In . SVG Version: 6.00 Build 0)  -->
<!DOCTYPE svg PUBLIC "-//W3C//DTD SVG 1.1//EN" "http://www.w3.org/Graphics/SVG/1.1/DTD/svg11.dtd">
<svg version="1.1" id="Capa_1" xmlns="http://www.w3.org/2000/svg" xmlns:xlink="http://www.w3.org/1999/xlink" x="0px" y="0px"
	 width="64px" height="64px" viewBox="0 0 64 64" style="enable-background:new 0 0 64 64;" xml:space="preserve">
<g>
	<path d="M61.75,29.875c-0.062-1.125-4.312-1.938-10.938-2.9c-6.625-0.962-3.875-4.725-12.312-5.6s-15.375-0.688-15.938,0.438
		s-0.75,5.062-0.75,5.062H3.25c-1.438,0.438-0.812,6.25-0.812,6.25c0.008,0.038,0.015,0.065,0.023,0.102H2.372
		c-0.973,0-1.761,0.789-1.761,1.761c0,0.973,0.789,1.762,1.761,1.762h2.117c0.537,0,2.234-0.241,3.649-0.62
		c0.635,0.134,1.242,0.285,1.828,0.442c0.896-1.922,2.84-3.26,5.096-3.26c3.102,0,5.625,2.523,5.625,5.625h26.75
		c0-3.102,2.523-5.625,5.625-5.625c2.92,0,5.325,2.237,5.598,5.086c1.35-0.295,2.845-0.651,3.465-0.898
		c1.25-0.5,1.062-4.951,1.062-4.951S61.812,31,61.75,29.875z"/>
	<path d="M19.688,38.938c0-2.554-2.071-4.625-4.625-4.625c-1.8,0-3.342,1.039-4.107,2.54c-0.32,0.629-0.518,1.331-0.518,2.085
		c0,2.554,2.071,4.625,4.625,4.625S19.688,41.492,19.688,38.938z"/>
	<path d="M57.688,38.938c0-0.111-0.025-0.215-0.033-0.324c-0.169-2.4-2.149-4.301-4.592-4.301c-2.554,0-4.625,2.071-4.625,4.625
		s2.071,4.625,4.625,4.625S57.688,41.492,57.688,38.938z"/>
</g>
</svg>
