<?xml version="1.0" encoding="iso-8859-1"?>
<!-- Generator: Adobe Illustrator 17.0.0, SVG Export Plug-In . SVG Version: 6.00 Build 0)  -->
<!DOCTYPE svg PUBLIC "-//W3C//DTD SVG 1.1//EN" "http://www.w3.org/Graphics/SVG/1.1/DTD/svg11.dtd">
<svg version="1.1" id="Capa_1" xmlns="http://www.w3.org/2000/svg" xmlns:xlink="http://www.w3.org/1999/xlink" x="0px" y="0px"
	 width="64px" height="64px" viewBox="0 0 64 64" style="enable-background:new 0 0 64 64;" xml:space="preserve">
<g>
	<path d="M62.379,37.495c0.631-2.103,0.463-3.874-0.5-5.27c-1.832-2.653-5.904-2.992-6.681-3.032l-1.524-0.821l-0.1-0.041
		c-1.691-0.483-8.061-0.677-9.015-0.704c-1.505-0.742-2.755-1.437-3.861-2.052C36.825,23.423,34.265,22,26.938,22
		c-8.873,0-16.115,3.846-17.086,4.385c-0.53,0.04-0.999,0.076-1.442,0.111l-1.217-1.647l1.384,0.146
		c0.549,0.058,0.805-0.234,0.572-0.652c-0.234-0.418-0.868-0.804-1.418-0.862l-4.517-0.476c-0.549-0.058-0.805,0.234-0.571,0.652
		c0.234,0.418,0.868,0.804,1.418,0.862l0.694,0.073l1.54,2.084c-2.607,0.248-2.607,0.403-2.607,0.824
		c0,3.457-0.442,4.254-0.534,4.407l-0.716-0.573v3.587l0.424,0.545c-0.017,0.523,0.155,1.004,0.504,1.401
		c1.128,1.283,3.718,1.32,4.009,1.32c0.874,0,2.68-0.446,3.919-0.782c-0.086-0.148-0.175-0.294-0.245-0.452
		c-0.068-0.152-0.114-0.314-0.167-0.474c-0.153-0.469-0.257-0.961-0.257-1.48c0-2.654,2.159-4.812,4.812-4.812
		S20.25,32.346,20.25,35c0,1.145-0.419,2.184-1.089,3.011c-0.142,0.175-0.288,0.344-0.452,0.498
		c-0.193,0.18-0.394,0.351-0.614,0.498c5.532,0.02,21.154,0.097,31.817,0.334c-0.156-0.156-0.288-0.334-0.421-0.51
		c-0.123-0.161-0.231-0.33-0.333-0.507c-0.407-0.706-0.659-1.514-0.659-2.386c0-2.654,2.159-4.812,4.812-4.812
		s4.812,2.159,4.812,4.812c0,0.966-0.292,1.862-0.783,2.616c-0.114,0.175-0.249,0.332-0.384,0.49
		c-0.148,0.174-0.305,0.336-0.477,0.487c0.982,0.03,1.829,0.044,2.554,0.044c3.69,0,4.411-0.318,4.501-0.946
		C63.564,38.438,63.632,37.965,62.379,37.495z"/>
	<path d="M12.277,37.13c0.686,1.014,1.847,1.682,3.16,1.682c0.043,0,0.083-0.011,0.125-0.013c0.486-0.016,0.951-0.115,1.375-0.297
		c0.297-0.128,0.565-0.302,0.817-0.497c0.902-0.698,1.495-1.779,1.495-3.005c0-2.102-1.71-3.812-3.812-3.812
		s-3.812,1.71-3.812,3.812c0,0.427,0.087,0.832,0.217,1.216c0.054,0.16,0.116,0.315,0.191,0.465
		C12.109,36.834,12.182,36.99,12.277,37.13z"/>
	<path d="M53.312,39.75c0.501,0,0.976-0.103,1.415-0.279c0.3-0.121,0.577-0.282,0.834-0.471c0.195-0.144,0.375-0.304,0.54-0.482
		c0.63-0.68,1.024-1.583,1.024-2.58c0-2.102-1.71-3.812-3.812-3.812s-3.812,1.71-3.812,3.812c0,0.92,0.341,1.754,0.886,2.413
		c0.154,0.187,0.324,0.357,0.511,0.512c0.247,0.205,0.515,0.382,0.809,0.52C52.196,39.612,52.737,39.75,53.312,39.75z"/>
</g>
</svg>
