<?xml version="1.0" encoding="iso-8859-1"?>
<!-- Generator: Adobe Illustrator 17.0.0, SVG Export Plug-In . SVG Version: 6.00 Build 0)  -->
<!DOCTYPE svg PUBLIC "-//W3C//DTD SVG 1.1//EN" "http://www.w3.org/Graphics/SVG/1.1/DTD/svg11.dtd">
<svg version="1.1" id="Capa_1" xmlns="http://www.w3.org/2000/svg" xmlns:xlink="http://www.w3.org/1999/xlink" x="0px" y="0px"
	 width="64px" height="64px" viewBox="0 0 64 64" style="enable-background:new 0 0 64 64;" xml:space="preserve">
<g>
	<path d="M55.62,46.984c-2.512,0-4.697,1.402-5.814,3.466h-1.474c0.259-1.038,0.996-2.131,2.123-3.102
		c1.771-1.524,4.101-2.375,5.81-2.119c1.092,0.162,2.11-0.587,2.275-1.68s-0.588-2.111-1.68-2.275
		c-2.829-0.429-6.212,0.701-8.876,2.934V7.951c0-0.649-0.526-1.175-1.175-1.175h-0.838C46.16,7.302,46.28,7.86,46.28,8.45
		c0,1.683-0.839,3.167-2.114,4.079v37.922h-24.42c-0.231-2.389-1.484-4.735-3.533-6.537c-2.305-2.026-5.162-2.99-7.84-2.645
		c-1.096,0.141-1.869,1.144-1.728,2.239c0.141,1.097,1.146,1.868,2.239,1.728c1.515-0.194,3.267,0.434,4.688,1.682
		c1.146,1.008,1.904,2.284,2.137,3.533h-1.267c-1.118-2.064-3.302-3.466-5.814-3.466c-3.65,0-6.608,2.959-6.608,6.608
		s2.958,6.608,6.608,6.608c2.512,0,4.697-1.402,5.814-3.466h35.362c1.118,2.064,3.302,3.466,5.814,3.466
		c3.65,0,6.608-2.959,6.608-6.608S59.27,46.984,55.62,46.984z"/>
	<path d="M44.166,9.228c0.067-0.25,0.114-0.508,0.114-0.779c0-0.23-0.031-0.453-0.08-0.668c-0.305-1.347-1.504-2.355-2.943-2.355
		c-1.67,0-3.023,1.353-3.023,3.023s1.353,3.023,3.023,3.023C42.656,11.473,43.821,10.518,44.166,9.228z"/>
</g>
</svg>
