<?xml version="1.0" encoding="iso-8859-1"?>
<!-- Generator: Adobe Illustrator 17.0.0, SVG Export Plug-In . SVG Version: 6.00 Build 0)  -->
<!DOCTYPE svg PUBLIC "-//W3C//DTD SVG 1.1//EN" "http://www.w3.org/Graphics/SVG/1.1/DTD/svg11.dtd">
<svg version="1.1" id="Capa_1" xmlns="http://www.w3.org/2000/svg" xmlns:xlink="http://www.w3.org/1999/xlink" x="0px" y="0px"
	 width="64px" height="64px" viewBox="0 0 64 64" style="enable-background:new 0 0 64 64;" xml:space="preserve">
<g>
	<path d="M57.333,33.5h-8.5V23.246h3.171c0.871,0,1.579-0.708,1.579-1.579s-0.708-1.579-1.579-1.579h-9.342
		c-0.871,0-1.579,0.708-1.579,1.579s0.708,1.579,1.579,1.579h3.171V33.5h-40c-1.381,0-2.5,1.119-2.5,2.5s1.119,2.5,2.5,2.5h3.352
		c-0.528,0.698-0.852,1.558-0.852,2.5c0,2.301,1.865,4.167,4.167,4.167s4.167-1.865,4.167-4.167c0-0.942-0.325-1.802-0.852-2.5
		h32.371c-0.528,0.698-0.852,1.558-0.852,2.5c0,2.301,1.865,4.167,4.167,4.167s4.167-1.865,4.167-4.167
		c0-0.942-0.325-1.802-0.852-2.5h2.519c1.381,0,2.5-1.119,2.5-2.5S58.714,33.5,57.333,33.5z"/>
</g>
</svg>
