<?xml version="1.0" encoding="iso-8859-1"?>
<!-- Generator: Adobe Illustrator 17.0.0, SVG Export Plug-In . SVG Version: 6.00 Build 0)  -->
<!DOCTYPE svg PUBLIC "-//W3C//DTD SVG 1.1//EN" "http://www.w3.org/Graphics/SVG/1.1/DTD/svg11.dtd">
<svg version="1.1" id="Capa_1" xmlns="http://www.w3.org/2000/svg" xmlns:xlink="http://www.w3.org/1999/xlink" x="0px" y="0px"
	 width="64px" height="64px" viewBox="0 0 64 64" style="enable-background:new 0 0 64 64;" xml:space="preserve">
<g>
	<path d="M11.114,52.029c5.398,0,9.773-4.376,9.773-9.773c0-0.339-0.017-0.673-0.051-1.003l3.938-0.692c0,0,0.133-0.177,1.104,0.795
		c0.415,0.415,0.98,0.468,1.495,0.401c0.916,0.309,2.988,0.905,5.381,0.905c1.857,0,3.901-0.361,5.729-1.5
		c2.788-1.738,4.436-4.902,4.935-9.378c1.228-1.354,2.506-2.41,3.759-3.232l1.076,3.206c-3.38,1.538-5.734,4.937-5.734,8.892
		c0,5.398,4.376,9.773,9.773,9.773s9.773-4.376,9.773-9.773c0-5.398-4.376-9.773-9.773-9.773c-0.737,0-1.452,0.088-2.143,0.243
		l-1.207-3.597c3.766-1.919,6.883-1.89,6.883-1.89l1.17,0.64l3.887,0.309c-2.341-2.716-11.572-2.231-11.572-2.231l1.966-0.331
		c0,0-0.066-2.12-1.281-4.726c-1.215-2.606-2.54-4.13-2.54-4.13c-0.121,0.137-0.2,0.298-0.263,0.465
		c0.022-1.794,0.045-3.588,0.183-5.379c0.002-0.025-0.007-0.042-0.008-0.065c0.044-0.184-0.014-0.382-0.239-0.492
		C46.403,9.339,45.69,9.04,44.875,9c-0.221-0.011-0.425,0.161-0.482,0.367c-0.257,0.932-0.325,1.908-0.214,2.865
		c-0.08-0.162-0.158-0.324-0.247-0.484c-0.135-0.244-0.371-0.281-0.573-0.206c-0.229-0.039-0.489,0.049-0.591,0.326
		c-0.164,0.448-0.52,0.749-0.539,1.268c-0.029,0.815,0.918,1.345,1.518,1.671c0.114,0.062,0.227,0.065,0.334,0.045
		c0.295,1.194,0.392,2.427,0.32,3.693c-1.824,1.183-1.121,2.262-1.121,2.262l-0.331,0.563c0,0-1.723-2.451-7.354,1.193
		c-5.631,3.644-10.07,1.325-13.78,0c-3.71-1.325-17.358-1.656-17.358-1.656c6.714,1.016,9.673,6.537,9.673,6.537l-5.3-3.268
		c-2.341,0.221-1.723,2.694-1.723,2.694l9.761,5.963c1.899-0.707,4.063,1.413,4.063,1.413l2.032,3.578l-2.784,0.793
		c-1.445-3.593-4.955-6.132-9.065-6.132c-5.398,0-9.773,4.376-9.773,9.773C1.341,47.654,5.717,52.029,11.114,52.029z M52.291,33.876
		c3.735,0,6.773,3.038,6.773,6.773c0,3.735-3.038,6.773-6.773,6.773c-3.735,0-6.773-3.038-6.773-6.773
		c0-2.626,1.505-4.903,3.696-6.026l2.129,6.344c0.141,0.418,0.53,0.682,0.948,0.682c0.105,0,0.212-0.017,0.318-0.052
		c0.523-0.176,0.805-0.743,0.63-1.267l-2.129-6.345C51.494,33.918,51.888,33.876,52.291,33.876z M45.354,13.979
		c0.305-0.238,0.599-0.47,0.88-0.715c-0.039,1.479-0.047,2.959-0.078,4.439c-0.266,0.098-0.506,0.197-0.728,0.296
		c0.027-1.336-0.136-2.641-0.51-3.899C45.06,14.121,45.214,14.087,45.354,13.979z M34.712,29.607
		c4.658-1.397,6.238,0.706,6.735,1.83c-0.412,3.901-1.752,6.608-4.015,8.023c-2.966,1.854-6.853,1.13-8.719,0.611
		C28.918,37.332,29.911,31.048,34.712,29.607z M11.114,35.483c2.731,0,5.083,1.628,6.154,3.961l-7.335,2.089l0.265,1.59l7.664-1.347
		c0.011,0.159,0.024,0.318,0.024,0.48c0,3.735-3.038,6.773-6.773,6.773c-3.735,0-6.773-3.038-6.773-6.773
		C4.341,38.521,7.38,35.483,11.114,35.483z"/>
	<path d="M40.233,33.163h-8.812l-1.458,6.228C38.842,41.047,40.233,33.163,40.233,33.163z"/>
</g>
</svg>
