<?xml version="1.0" encoding="iso-8859-1"?>
<!-- Generator: Adobe Illustrator 17.0.0, SVG Export Plug-In . SVG Version: 6.00 Build 0)  -->
<!DOCTYPE svg PUBLIC "-//W3C//DTD SVG 1.1//EN" "http://www.w3.org/Graphics/SVG/1.1/DTD/svg11.dtd">
<svg version="1.1" id="Capa_1" xmlns="http://www.w3.org/2000/svg" xmlns:xlink="http://www.w3.org/1999/xlink" x="0px" y="0px"
	 width="64px" height="64px" viewBox="0 0 64 64" style="enable-background:new 0 0 64 64;" xml:space="preserve">
<g>
	<path d="M59.88,24.792c-1.207-0.67-2.729-0.235-3.399,0.971c-0.278,0.501-0.575,0.898-0.876,1.214
		c-1.358,1.43-2.805,1.185-3.094,1.116c-0.228-0.066-0.463-0.1-0.7-0.1H10.328c-1.098,0-2.048-0.481-2.782-1.016
		c-0.908-0.662-1.479-1.408-1.508-1.447c-0.794-1.12-2.346-1.391-3.472-0.601c-1.131,0.792-1.406,2.351-0.614,3.481
		c0.12,0.171,2.757,3.851,7.114,4.481c-1.168,1.123-1.9,2.697-1.9,4.442c0,3.4,2.767,6.167,6.167,6.167s6.167-2.766,6.167-6.167
		c0-1.692-0.685-3.225-1.792-4.341h26.251c-1.107,1.115-1.792,2.649-1.792,4.341c0,3.4,2.767,6.167,6.167,6.167
		s6.167-2.766,6.167-6.167c0-1.624-0.635-3.098-1.664-4.201c0.062,0.001,0.118,0.009,0.182,0.009c2.379,0,5.662-1.041,7.835-4.951
		C61.522,26.984,61.087,25.462,59.88,24.792z M13.333,38.5c-0.644,0-1.167-0.523-1.167-1.167c0-0.644,0.523-1.167,1.167-1.167
		c0.643,0,1.167,0.523,1.167,1.167C14.5,37.977,13.977,38.5,13.333,38.5z M48.333,38.5c-0.644,0-1.167-0.523-1.167-1.167
		c0-0.644,0.523-1.167,1.167-1.167c0.643,0,1.167,0.523,1.167,1.167C49.5,37.977,48.977,38.5,48.333,38.5z"/>
</g>
</svg>
