<?xml version="1.0" encoding="iso-8859-1"?>
<!-- Generator: Adobe Illustrator 17.0.0, SVG Export Plug-In . SVG Version: 6.00 Build 0)  -->
<!DOCTYPE svg PUBLIC "-//W3C//DTD SVG 1.1//EN" "http://www.w3.org/Graphics/SVG/1.1/DTD/svg11.dtd">
<svg version="1.1" id="Capa_1" xmlns="http://www.w3.org/2000/svg" xmlns:xlink="http://www.w3.org/1999/xlink" x="0px" y="0px"
	 width="64px" height="64px" viewBox="0 0 64 64" style="enable-background:new 0 0 64 64;" xml:space="preserve">
<g>
	<path d="M5.98,31.836c1.791-1.206,3.945-1.911,6.261-1.911c6.03,0,10.951,4.776,11.216,10.741h15.661
		c0.264-5.966,5.186-10.741,11.216-10.741c3.464,0,6.566,1.577,8.63,4.049c1.39-0.289,2.178-4.144,1.454-4.467
		c-0.917-0.408-1.25-2.925-1.25-2.925c-1.417-2.25-12-3.833-12-3.833l-0.917,0.333c0,0-3-1.667-6.25-3.583
		c-3.25-1.917-11.083-1.5-12-0.75s-2.167,5.083-2.167,5.083s-18-0.75-20.25-0.417c-2.25,0.333-2.167,5.977-2.167,5.977
		c-1.083,0.644-0.583,1.773-0.583,1.773L5.98,31.836z"/>
	<path d="M50.333,30.926c-5.487,0-9.953,4.319-10.216,9.741c-0.008,0.167-0.025,0.331-0.025,0.5c0,5.656,4.585,10.241,10.241,10.241
		s10.241-4.585,10.241-10.241c0-2.994-1.293-5.68-3.342-7.552C55.412,31.95,52.995,30.926,50.333,30.926z M50.333,46.883
		c-3.157,0-5.717-2.56-5.717-5.717c0-0.247,0.021-0.488,0.051-0.727c0.358-2.813,2.755-4.99,5.666-4.99
		c0.887,0,1.724,0.208,2.473,0.569c1.917,0.923,3.244,2.878,3.244,5.148C56.05,44.324,53.491,46.883,50.333,46.883z"/>
	<path d="M12.241,51.408c5.656,0,10.241-4.585,10.241-10.241c0-0.169-0.017-0.333-0.025-0.5c-0.263-5.422-4.729-9.741-10.216-9.741
		c-1.875,0-3.627,0.513-5.139,1.393C4.054,34.092,2,37.386,2,41.167C2,46.823,6.585,51.408,12.241,51.408z M10.781,35.645
		c0.467-0.123,0.955-0.195,1.46-0.195c2.989,0,5.438,2.294,5.692,5.217c0.014,0.165,0.025,0.331,0.025,0.5
		c0,3.157-2.56,5.717-5.717,5.717c-3.157,0-5.717-2.56-5.717-5.717C6.524,38.515,8.332,36.291,10.781,35.645z"/>
</g>
</svg>
