<?xml version="1.0" encoding="iso-8859-1"?>
<!-- Generator: Adobe Illustrator 17.0.0, SVG Export Plug-In . SVG Version: 6.00 Build 0)  -->
<!DOCTYPE svg PUBLIC "-//W3C//DTD SVG 1.1//EN" "http://www.w3.org/Graphics/SVG/1.1/DTD/svg11.dtd">
<svg version="1.1" id="Capa_1" xmlns="http://www.w3.org/2000/svg" xmlns:xlink="http://www.w3.org/1999/xlink" x="0px" y="0px"
	 width="64px" height="64px" viewBox="0 0 64 64" style="enable-background:new 0 0 64 64;" xml:space="preserve">
<g>
	<path d="M62.099,42.475h-2.063c0.433,0.61,0.747,1.311,0.9,2.071h1.163C63.187,42.914,62.099,42.475,62.099,42.475z"/>
	<path d="M51.144,42.475H38.461v-1.004l2.902-0.188V27.667c0,0-0.907-4.706-0.967-6.714c-0.06-2.008-3.325-1.192-3.325-1.192
		c-14.509,1.757-17.23,7.781-17.23,7.781h-0.665L17.301,29.8c0.423,0.753,0.846,0.502,0.846,0.502
		c-0.605,0.565-1.753,4.078-1.753,4.078s-7.315,0.753-10.277,0.816S2.61,36.2,2.61,36.2v6.275c0,0-3.083,3.702-0.907,2.949
		c2.05-0.709,0.78-3.907,4.979-4.277c0.527-0.17,1.088-0.265,1.671-0.265c3.003,0,5.446,2.443,5.446,5.446
		c0,0.226-0.018,0.447-0.045,0.665h28.817c0.605-1.067,0.423-2.447,0.423-2.447h7.249C50.397,43.786,50.711,43.085,51.144,42.475z"
		/>
	<circle cx="8.354" cy="46.328" r="4.446"/>
	<path d="M58.741,42.475c-0.806-0.807-1.92-1.306-3.151-1.306s-2.345,0.499-3.151,1.306c-0.56,0.561-0.959,1.276-1.157,2.071
		c-0.087,0.347-0.146,0.703-0.146,1.077c0,2.46,1.994,4.454,4.454,4.454s4.454-1.994,4.454-4.454c0-0.373-0.06-0.73-0.146-1.077
		C59.699,43.751,59.301,43.036,58.741,42.475z"/>
</g>
</svg>
