<?xml version="1.0" encoding="iso-8859-1"?>
<!-- Generator: Adobe Illustrator 17.0.0, SVG Export Plug-In . SVG Version: 6.00 Build 0)  -->
<!DOCTYPE svg PUBLIC "-//W3C//DTD SVG 1.1//EN" "http://www.w3.org/Graphics/SVG/1.1/DTD/svg11.dtd">
<svg version="1.1" id="Capa_1" xmlns="http://www.w3.org/2000/svg" xmlns:xlink="http://www.w3.org/1999/xlink" x="0px" y="0px"
	 width="64px" height="64px" viewBox="0 0 64 64" style="enable-background:new 0 0 64 64;" xml:space="preserve">
<g>
	<path d="M62.854,27.875c-0.021-0.583-0.312-0.938-0.312-0.938c0.25-0.75,0.104-1.396,0.104-1.396h-0.438
		c-0.333-0.917-2.625-1.167-2.625-1.167c-8.833,0.917-14.25-3.875-24.625-4.042S18.5,25.094,18.5,25.094
		c-1.781-0.344-5.781,0.688-5.781,0.688S1.75,30.062,0.98,31s0.863,2.062,0.863,2.062v1.094c-2.156,0.625,0.406,2.281,0.406,2.281
		s3.619,0.274,7.498,0.429C9.158,35.97,8.812,34.9,8.812,33.75c0-3.136,2.551-5.688,5.688-5.688s5.688,2.551,5.688,5.688
		c0,1.135-0.338,2.192-0.914,3.081c6.27-0.194,17.124-0.445,22.226-0.393c2.122,0.022,4.922,0.032,7.705,0.035
		c-0.562-0.901-0.892-1.96-0.892-3.098c0-3.24,2.635-5.875,5.875-5.875s5.875,2.635,5.875,5.875c0,1.128-0.325,2.18-0.879,3.075
		c0.49-0.004,0.813-0.009,0.91-0.013c0.688-0.031,2.562-1.312,2.781-2.25s0.281-2.062,0.542-2.906c0.26-0.844,0-2.802,0-2.802
		S62.875,28.458,62.854,27.875z"/>
	<path d="M14.5,38.438c1.384,0,2.615-0.611,3.473-1.565c0.747-0.83,1.214-1.917,1.214-3.122c0-2.589-2.099-4.688-4.688-4.688
		c-2.589,0-4.688,2.099-4.688,4.688c0,1.224,0.48,2.328,1.248,3.163C11.917,37.844,13.135,38.438,14.5,38.438z"/>
	<path d="M54.188,38.25c1.516,0,2.853-0.706,3.747-1.791c0.694-0.842,1.128-1.907,1.128-3.084c0-2.692-2.183-4.875-4.875-4.875
		s-4.875,2.183-4.875,4.875c0,1.184,0.439,2.254,1.14,3.098C51.347,37.55,52.679,38.25,54.188,38.25z"/>
</g>
</svg>
