<?xml version="1.0" encoding="iso-8859-1"?>
<!-- Generator: Adobe Illustrator 17.0.0, SVG Export Plug-In . SVG Version: 6.00 Build 0)  -->
<!DOCTYPE svg PUBLIC "-//W3C//DTD SVG 1.1//EN" "http://www.w3.org/Graphics/SVG/1.1/DTD/svg11.dtd">
<svg version="1.1" id="Capa_1" xmlns="http://www.w3.org/2000/svg" xmlns:xlink="http://www.w3.org/1999/xlink" x="0px" y="0px"
	 width="64px" height="64px" viewBox="0 0 64 64" style="enable-background:new 0 0 64 64;" xml:space="preserve">
<g>
	<path d="M61.741,35.924l-0.227-1.474l-0.093-0.108c-5.088-5.953-9.583-6.258-11.274-6.373c-0.169-0.012-0.356-0.024-0.45-0.039
		c-0.752-0.596-3.767-1.263-4.477-1.263c-0.001,0-0.002,0-0.004,0c-0.24,0.016-0.497,0.096-0.768,0.18
		c-0.573,0.178-1.286,0.342-1.863,0.074c-1.231-0.571-3.946-0.588-4.252-0.588l-2.641,0.645c-2.203-0.798-6.032-2.55-7.109-3.047
		v-1.039l-0.231-0.147c-0.463-0.294-0.945-0.443-1.435-0.443c-1.128,0-1.963,0.79-2.312,1.188c-1.004-0.024-4.655,0.043-8.124,2.256
		c-2.382,1.521-3.332,1.942-3.67,2.059l-0.034-0.045l-0.032,0.009l-0.367-0.404c0.612-0.189,1.06-0.753,1.06-1.427v-0.875
		c0-0.827-0.673-1.5-1.5-1.5H9.062c-0.491,0-0.924,0.241-1.198,0.606c-0.201-0.276-0.573-0.544-1.302-0.544
		c-0.554,0-1.13-0.013-1.689-0.025c-0.536-0.012-1.057-0.024-1.529-0.024c-1.156,0-2.594,0-2.594,0.924v6.421l3.188,0.788v-0.639
		c0-2.417,2.498-2.985,2.604-3.009l0.185-0.04l0.112-0.15c0.065-0.087,0.19-0.263,0.332-0.483l0.608,1.794l-3.445,0.981l0.577,5.442
		l0.285,0.11c0.19,0.073,2.903,1.117,5.544,1.962c-0.21-0.219-0.4-0.455-0.567-0.71c-0.134-0.204-0.249-0.421-0.351-0.645
		c-0.28-0.615-0.446-1.292-0.446-2.01c0-2.688,2.187-4.875,4.875-4.875s4.875,2.187,4.875,4.875c0,1.295-0.516,2.467-1.343,3.341
		c-0.18,0.19-0.378,0.358-0.586,0.517c-0.268,0.205-0.554,0.384-0.861,0.53c4.173-0.165,21.357-0.442,30.673-0.576
		c0.071-0.001,0.158-0.002,0.239-0.002c-0.194-0.153-0.379-0.313-0.548-0.493c-0.146-0.156-0.283-0.32-0.408-0.494
		c-0.571-0.798-0.915-1.769-0.915-2.823c0-2.688,2.187-4.875,4.875-4.875s4.875,2.187,4.875,4.875c0,1.079-0.364,2.069-0.96,2.877
		c-0.127,0.173-0.26,0.341-0.409,0.495c-0.174,0.181-0.369,0.34-0.569,0.493c1.994,0.025,4.094,0.05,5.835,0.05
		c2.086,0,3.282-0.035,3.762-0.108c0.561-0.086,0.864-0.317,0.899-0.686C63.707,37.187,63.754,36.685,61.741,35.924z"/>
	<path d="M14.448,38.167c0.586-0.03,1.133-0.192,1.623-0.456c1.216-0.654,2.054-1.924,2.054-3.399c0-2.137-1.738-3.875-3.875-3.875
		s-3.875,1.738-3.875,3.875c0,0.957,0.362,1.822,0.938,2.499c0.276,0.324,0.6,0.601,0.968,0.82c0.579,0.345,1.247,0.556,1.969,0.556
		C14.318,38.188,14.381,38.171,14.448,38.167z"/>
	<path d="M50.25,38.188c0.143,0,0.279-0.027,0.418-0.042c0.539-0.059,1.041-0.224,1.49-0.481c0.245-0.14,0.474-0.302,0.683-0.491
		c0.783-0.709,1.284-1.724,1.284-2.861c0-2.137-1.738-3.875-3.875-3.875s-3.875,1.738-3.875,3.875c0,1.108,0.473,2.102,1.221,2.809
		c0.203,0.192,0.429,0.357,0.669,0.502c0.438,0.264,0.929,0.438,1.456,0.511C49.896,38.158,50.069,38.188,50.25,38.188z"/>
</g>
</svg>
