<?xml version="1.0" encoding="iso-8859-1"?>
<!-- Generator: Adobe Illustrator 17.0.0, SVG Export Plug-In . SVG Version: 6.00 Build 0)  -->
<!DOCTYPE svg PUBLIC "-//W3C//DTD SVG 1.1//EN" "http://www.w3.org/Graphics/SVG/1.1/DTD/svg11.dtd">
<svg version="1.1" id="Capa_1" xmlns="http://www.w3.org/2000/svg" xmlns:xlink="http://www.w3.org/1999/xlink" x="0px" y="0px"
	 width="64px" height="64px" viewBox="0 0 64 64" style="enable-background:new 0 0 64 64;" xml:space="preserve">
<g>
	<path d="M43.34,28.815c-4.934-0.289-13.497-1.153-15.778-0.861c-2.31,0.295-6.699,2.398-8.158,2.935
		c2.391,0.488,5.604,0.942,8.349,0.615C31.227,31.09,38.326,29.845,43.34,28.815z"/>
	<path d="M61.422,24.25c-0.234,0.172-1.219,0.719-1.75,0.797s-3.125,0.734-3.125,0.734s0.609-0.719-0.203-0.203
		s-3.297,1.047-3.531,1.25s-0.594,0.531-0.594,0.531c-0.141,0.469,0.656,0.406,1.297,0.172s1.5-0.438,1.359-0.281
		c-0.115,0.127-0.898,0.85-1.33,1.149c-1.921-0.105-3.729,0.142-5.388,0.33c-3.893,1.087-15.661,3.218-20.285,3.768
		c-0.7,0.083-1.426,0.12-2.156,0.12c-3.811,0-7.786-0.984-9.386-1.427c-9.168-0.005-15.705,7.27-15.705,7.27
		s-0.396,0.479,0.292,0.875s0.208,1.917,0.438,2.271c0.229,0.354,0.062,0.729,0.583,0.875c0.431,0.121,5.188,0.753,7.151,0.992
		c-0.426-0.874-0.672-1.852-0.672-2.888c0-3.653,2.972-6.625,6.625-6.625s6.625,2.972,6.625,6.625c0,1.143-0.291,2.219-0.803,3.159
		c0.68-0.175,1.456-0.388,2.355-0.617c3.438-0.875,11.672-1.922,11.875-1.797s0.891,0.359,0.891,0.359
		c1.422,0.312,9.5-0.344,9.5-0.344c0.387,0,1.817,0.269,2.814,0.445c-0.796-1.209-1.263-2.653-1.263-4.206
		c0-4.231,3.442-7.673,7.673-7.673c2.125,0,4.05,0.869,5.441,2.27c0.443-0.175,0.621-0.514,0.621-0.514l-0.604-1.104
		c-0.823-0.54-1.633-0.944-2.431-1.262l1.015-2.933c0.609,0.009,2.25-1.493,2.672-1.712S61.656,24.078,61.422,24.25z M54.917,28.536
		c1.672-1.232,1.856-0.948,1.583-0.458c-0.16,0.287-0.28,0.53-0.36,0.699C55.728,28.674,55.321,28.597,54.917,28.536z"/>
	<path d="M15.042,34.958c-3.107,0-5.625,2.518-5.625,5.625c0,1.075,0.307,2.075,0.83,2.929c0.989,1.615,2.763,2.696,4.795,2.696
		c1.796,0,3.391-0.845,4.421-2.155c0.752-0.956,1.204-2.159,1.204-3.47C20.667,37.477,18.148,34.958,15.042,34.958z"/>
	<path d="M54.708,30.911c-3.685,0-6.673,2.987-6.673,6.673c0,1.612,0.572,3.091,1.524,4.245c1.224,1.483,3.076,2.428,5.149,2.428
		c3.685,0,6.673-2.987,6.673-6.673c0-1.9-0.798-3.611-2.073-4.826C58.111,31.616,56.493,30.911,54.708,30.911z"/>
</g>
</svg>
