<?xml version="1.0" encoding="iso-8859-1"?>
<!-- Generator: Adobe Illustrator 17.0.0, SVG Export Plug-In . SVG Version: 6.00 Build 0)  -->
<!DOCTYPE svg PUBLIC "-//W3C//DTD SVG 1.1//EN" "http://www.w3.org/Graphics/SVG/1.1/DTD/svg11.dtd">
<svg version="1.1" id="Capa_1" xmlns="http://www.w3.org/2000/svg" xmlns:xlink="http://www.w3.org/1999/xlink" x="0px" y="0px"
	 width="64px" height="64px" viewBox="0 0 64 64" style="enable-background:new 0 0 64 64;" xml:space="preserve">
<g>
	<path d="M3.333,32.833c0.192,0.22,1.238,0.476,2.545,0.72C5.638,32.928,5.5,32.251,5.5,31.542c0-3.102,2.523-5.625,5.625-5.625
		s5.625,2.523,5.625,5.625c0,1.125-0.336,2.172-0.907,3.052c6.764,0.179,21.602,0.573,30.447,0.808
		c-0.498-0.839-0.79-1.815-0.79-2.86c0-3.102,2.523-5.625,5.625-5.625s5.625,2.523,5.625,5.625c0,1.071-0.306,2.07-0.828,2.923
		c2.679-0.24,5.391-0.746,5.391-0.746l0.625-0.531c0.938-0.031,1.075-0.729,1.075-0.729L62.958,32
		c0.208-0.583-0.25-3.167-0.25-3.167c-5.958-5.042-20.927-5.177-20.927-5.177c-7.406-4.938-16.719-4.812-19.281-4.281
		s-11.75,1.656-11.75,1.656c-1.844,1.188-6.688,1.312-7.5,1.406s0,0.562,0,0.562c-0.344,0.031-0.812,1.062-0.812,1.062L1.5,24.938
		L0.812,28.65l1.521,3.6C2.333,32.25,2.75,32.167,3.333,32.833z"/>
	<path d="M11.125,36.167c1.394,0,2.629-0.63,3.477-1.605c0.706-0.812,1.148-1.859,1.148-3.02c0-2.554-2.071-4.625-4.625-4.625
		S6.5,28.987,6.5,31.542c0,0.811,0.227,1.562,0.594,2.225C7.882,35.191,9.382,36.167,11.125,36.167z"/>
	<path d="M51.125,37.167c1.396,0,2.632-0.631,3.48-1.609c0.704-0.812,1.145-1.858,1.145-3.016c0-2.554-2.071-4.625-4.625-4.625
		S46.5,29.987,46.5,32.542c0,1.101,0.401,2.099,1.044,2.893C48.391,36.483,49.672,37.167,51.125,37.167z"/>
</g>
</svg>
