<?xml version="1.0" encoding="iso-8859-1"?>
<!-- Generator: Adobe Illustrator 17.0.0, SVG Export Plug-In . SVG Version: 6.00 Build 0)  -->
<!DOCTYPE svg PUBLIC "-//W3C//DTD SVG 1.1//EN" "http://www.w3.org/Graphics/SVG/1.1/DTD/svg11.dtd">
<svg version="1.1" id="Capa_1" xmlns="http://www.w3.org/2000/svg" xmlns:xlink="http://www.w3.org/1999/xlink" x="0px" y="0px"
	 width="64px" height="64px" viewBox="0 0 64 64" style="enable-background:new 0 0 64 64;" xml:space="preserve">
<g>
	<path d="M63.375,30.991c-0.038-1.083-1.007-2.607-1.324-3.078c0.222-0.35,0.326-0.616,0.213-0.829
		c-0.12-0.226-0.397-0.226-0.488-0.226c-0.167,0-0.38,0.03-0.627,0.065c-0.572,0.082-1.415,0.167-2.104,0.039
		c-1.414-0.26-3.351-0.409-5.314-0.409c-0.507,0-0.983,0.011-1.409,0.03c-1.603,0.067-4.476-0.704-8.166-1.703l-1.383-0.373
		c-1.837-0.494-3.254-0.744-4.211-0.744c-0.506,0-0.79,0.071-0.947,0.146c-0.108-0.032-0.211-0.048-0.309-0.048
		c-0.519,0-0.758,0.432-0.847,0.804c-0.277-0.02-0.465,0.138-0.583,0.289c-0.441-0.031-0.636,0.261-0.654,0.293l-0.034,0.058v2.521
		c-0.894,0.223-5.709,0.508-9.364,0.678c0.108-0.105,0.197-0.223,0.264-0.354c0.209-0.404,0.161-0.823,0.096-1.078l4.031-1.771
		l0.029-0.121c0.006-0.026,0.148-0.641-0.222-1.11c-0.256-0.325-0.677-0.49-1.251-0.49c-0.165,0-0.349,0.014-0.556,0.044
		c-2.081,0.306-10.434,4.198-11.211,4.562c-9.879,0.39-16.04,5.505-16.102,5.557l-0.088,0.075v2.826l0.052,0.067
		c1.209,1.573,5.746,2.269,9.928,2.432c-0.066-0.086-0.134-0.171-0.195-0.261c-0.056-0.082-0.104-0.169-0.155-0.254
		c-0.515-0.852-0.817-1.846-0.817-2.912c0-3.119,2.537-5.656,5.656-5.656c3.119,0,5.656,2.537,5.656,5.656
		c0,0.846-0.192,1.646-0.526,2.367c-0.04,0.086-0.08,0.173-0.124,0.256c-0.046,0.088-0.097,0.172-0.148,0.257
		c4.274-0.201,12.737-0.235,20.427-0.264c2.763-0.011,5.465-0.021,7.909-0.039c-0.044-0.081-0.08-0.166-0.12-0.249
		c-0.04-0.083-0.084-0.164-0.12-0.249c-0.312-0.725-0.485-1.523-0.485-2.36c0-3.308,2.692-6,6-6s6,2.692,6,6
		c0,0.64-0.103,1.256-0.289,1.834c-0.034,0.104-0.074,0.205-0.113,0.307c-0.038,0.098-0.076,0.195-0.118,0.291
		c1.285-0.303,2.293-0.852,2.996-1.655c1.422-1.625,1.253-3.815,1.172-4.869C63.387,31.206,63.378,31.085,63.375,30.991z"/>
	<path d="M15.281,40.375c1.443,0,2.716-0.67,3.57-1.7c0.074-0.089,0.153-0.173,0.22-0.267c0.06-0.084,0.111-0.172,0.165-0.26
		c0.436-0.709,0.701-1.536,0.701-2.429c0-2.572-2.085-4.656-4.656-4.656c-2.572,0-4.656,2.085-4.656,4.656
		c0,1.129,0.418,2.149,1.086,2.955c0.069,0.084,0.132,0.173,0.207,0.251c0.087,0.091,0.183,0.172,0.277,0.256
		C13.018,39.915,14.092,40.375,15.281,40.375z"/>
	<path d="M49.498,38.038c0.051,0.083,0.095,0.169,0.15,0.249c0.903,1.297,2.401,2.15,4.102,2.15c1.79,0,3.348-0.948,4.231-2.362
		c0.056-0.089,0.1-0.185,0.15-0.277c0.051-0.094,0.107-0.183,0.152-0.28c0.292-0.635,0.466-1.336,0.466-2.081c0-2.761-2.239-5-5-5
		s-5,2.239-5,5c0,0.855,0.235,1.648,0.613,2.352C49.408,37.873,49.449,37.958,49.498,38.038z"/>
</g>
</svg>
