<?xml version="1.0" encoding="iso-8859-1"?>
<!-- Generator: Adobe Illustrator 17.0.0, SVG Export Plug-In . SVG Version: 6.00 Build 0)  -->
<!DOCTYPE svg PUBLIC "-//W3C//DTD SVG 1.1//EN" "http://www.w3.org/Graphics/SVG/1.1/DTD/svg11.dtd">
<svg version="1.1" id="Capa_1" xmlns="http://www.w3.org/2000/svg" xmlns:xlink="http://www.w3.org/1999/xlink" x="0px" y="0px"
	 width="64px" height="64px" viewBox="0 0 64 64" style="enable-background:new 0 0 64 64;" xml:space="preserve">
<g>
	<path d="M60,31.907v-6.011v0c0,0,0,0,0-0.001c0-1.637-0.915-3.006-2.224-3.329l-12.299-3.064c-0.491-0.122-1.02-0.448-1.478-0.878
		c-0.456-0.429-0.842-0.96-1.049-1.495l-1.713-4.086C40.654,11.535,39.031,11,37.818,11h0H33.5l-2-4L31,6h-5l-0.5,1l-2,4h-3.113
		c0,0,0,0,0,0c-1.333,0-3.092,0.372-4.02,1.41L11,18.22l-0.74,0.801c-0.696,0.777-2.188,1.494-3.258,1.595l-0.501-0.013
		c-1.438,0.13-2.692,1.418-2.837,2.933L2.753,32.94c-0.004,0.037,0.002,0.073-0.001,0.11C2.281,33.689,2,34.427,2,35.215v2.486
		c0,1.883,1.532,3.559,3.728,4.1c0.553,3.873,3.874,6.854,7.9,6.854c3.957,0,7.233-2.879,7.87-6.655H40.22
		c0.637,3.776,3.913,6.655,7.87,6.655s7.233-2.879,7.87-6.655h0.82c2.975,0,5.22-2.01,5.22-4.299v-2.486
		C62,33.882,61.224,32.685,60,31.907z M44,31v2.81c-0.561,0.336-1.082,0.731-1.543,1.19c-0.84,0.835-1.488,1.86-1.892,3H21.153
		c-0.404-1.14-1.052-2.165-1.892-3c-1.445-1.436-3.435-2.325-5.633-2.325c-0.922,0-1.804,0.164-2.628,0.452V31V19.696
		c0.001-0.001,0.003-0.003,0.004-0.004l6.104-6.61C17.823,12.283,19.321,12,20.387,12H23h11h3.818c0.897,0,2.086,0.367,2.493,1.416
		l1.713,4.086c0.361,0.934,1.12,1.816,1.976,2.39V31z"/>
	<path d="M16,19v1c0,2.761,0.239,5,3,5h7V14h-5C18.239,14,16,16.239,16,19z"/>
	<path d="M35,14h-6v11h8c2.761,0,3-2.239,3-5v-1C40,16.239,37.761,14,35,14z"/>
</g>
</svg>
