<?xml version="1.0" encoding="iso-8859-1"?>
<!-- Generator: Adobe Illustrator 17.0.0, SVG Export Plug-In . SVG Version: 6.00 Build 0)  -->
<!DOCTYPE svg PUBLIC "-//W3C//DTD SVG 1.1//EN" "http://www.w3.org/Graphics/SVG/1.1/DTD/svg11.dtd">
<svg version="1.1" id="Capa_1" xmlns="http://www.w3.org/2000/svg" xmlns:xlink="http://www.w3.org/1999/xlink" x="0px" y="0px"
	 width="64px" height="64px" viewBox="0 0 64 64" style="enable-background:new 0 0 64 64;" xml:space="preserve">
<g>
	<path d="M37.214,30.476c2.888-2.503,5-4.964,6.418-6.844c-7.615-0.63-12.32,0.118-12.32,0.118l0.062-0.328
		c9.458-11.578,3.112-13.734,3.112-13.734c-7.201,10.25-19.362,16.75-19.362,16.75c0.156,0.062,1.406,0.719-2.75,1.094
		s-11.5,6.531-11.5,6.531c0,0.875,0.875,3.094,0.875,3.094c-0.036,0.666,5.453,0.688,7.08,0.681
		c-0.291-0.723-0.455-1.511-0.455-2.337c0-3.469,2.822-6.292,6.292-6.292s6.292,2.822,6.292,6.292c0,0.684-0.113,1.341-0.316,1.958
		h5.76C30.973,35.325,34.564,32.772,37.214,30.476z M25.854,24.812c0.354-0.292,2.854-2.854,2.854-2.854
		c0.021,0.458,1.188,2,1.188,2C29.417,24.021,25.5,25.104,25.854,24.812z"/>
	<path d="M49.208,24.292c-1.141-0.175-2.229-0.314-3.282-0.432c-2.365,3.3-7.277,9.058-15.225,13.599h17.79
		c-0.879-1.082-1.408-2.459-1.408-3.958c0-3.469,2.822-6.292,6.292-6.292s6.292,2.822,6.292,6.292c0,0.888-0.187,1.732-0.521,2.499
		c1.753-0.555,3.354-1.895,3.354-1.895L62.125,32l0.938-1.875c0.312-0.854,0.25-2.667,0.25-2.667l0.312-1.917
		C63.625,25.542,60.042,25.958,49.208,24.292z"/>
	<path d="M14.667,30.208c-2.923,0-5.292,2.369-5.292,5.292c0,0.828,0.207,1.602,0.547,2.301c0.858,1.765,2.651,2.991,4.745,2.991
		c2.229,0,4.128-1.382,4.907-3.333c0.242-0.607,0.384-1.265,0.384-1.958C19.958,32.578,17.589,30.208,14.667,30.208z"/>
	<path d="M57.875,36.253c0.493-0.804,0.792-1.741,0.792-2.753c0-2.922-2.369-5.292-5.292-5.292s-5.292,2.369-5.292,5.292
		c0,1.584,0.71,2.989,1.812,3.958c0.932,0.82,2.141,1.333,3.479,1.333C55.285,38.792,56.944,37.77,57.875,36.253z"/>
</g>
</svg>
