<?xml version="1.0" encoding="iso-8859-1"?>
<!-- Generator: Adobe Illustrator 17.0.0, SVG Export Plug-In . SVG Version: 6.00 Build 0)  -->
<!DOCTYPE svg PUBLIC "-//W3C//DTD SVG 1.1//EN" "http://www.w3.org/Graphics/SVG/1.1/DTD/svg11.dtd">
<svg version="1.1" id="Capa_1" xmlns="http://www.w3.org/2000/svg" xmlns:xlink="http://www.w3.org/1999/xlink" x="0px" y="0px"
	 width="64px" height="64px" viewBox="0 0 64 64" style="enable-background:new 0 0 64 64;" xml:space="preserve">
<g>
	<path d="M1.5,41.738h48.631c1.886,1.861,3.642,3.883,4.414,6.47c0.012,0.041,0.031,0.075,0.046,0.113
		c0.008,0.643,0.013,1.287,0.02,1.93h-1.986c-0.828,0-1.5,0.671-1.5,1.5s0.672,1.5,1.5,1.5h5.25c0.828,0,1.5-0.671,1.5-1.5
		s-0.672-1.5-1.5-1.5h-0.762c-0.018-2.838-0.063-5.675-0.09-8.512h5.852V17.793H1.5V41.738z M54.523,41.738
		c0.004,0.402,0.008,0.804,0.012,1.206c-0.312-0.411-0.636-0.815-0.977-1.206H54.523z"/>
	<circle cx="11.091" cy="48.268" r="5.232"/>
	<circle cx="22.319" cy="48.268" r="5.232"/>
</g>
</svg>
