<?xml version="1.0" encoding="iso-8859-1"?>
<!-- Generator: Adobe Illustrator 17.0.0, SVG Export Plug-In . SVG Version: 6.00 Build 0)  -->
<!DOCTYPE svg PUBLIC "-//W3C//DTD SVG 1.1//EN" "http://www.w3.org/Graphics/SVG/1.1/DTD/svg11.dtd">
<svg version="1.1" id="Capa_1" xmlns="http://www.w3.org/2000/svg" xmlns:xlink="http://www.w3.org/1999/xlink" x="0px" y="0px"
	 width="64px" height="64px" viewBox="0 0 64 64" style="enable-background:new 0 0 64 64;" xml:space="preserve">
<g>
	<path d="M62.058,45.149c3.465-13.944-3.742-13.424-3.742-13.424s-2.079-6.835-2.079-9.319s-0.97-2.442-0.97-2.442h-4.296
		c-7.917-0.336-10.651,4.984-11.304,10.819v6.723c0.393,4.272,1.326,7.644,1.326,7.644h4.087c0.532-3.234,3.34-5.712,6.722-5.712
		s6.19,2.478,6.722,5.712H62.058z"/>
	<path d="M36.835,47.643v-3.197H26.774c0.16,0.578,0.252,1.183,0.252,1.811c0,0.475-0.049,0.938-0.142,1.386H36.835z"/>
	<path d="M8.148,44.446v3.197h5.378c-0.093-0.448-0.142-0.911-0.142-1.386c0-0.628,0.092-1.233,0.252-1.811H8.148z"/>
	<path d="M14.551,42.446c0.859-1.27,2.134-2.237,3.628-2.702c0.64-0.2,1.321-0.307,2.026-0.307s1.385,0.108,2.026,0.307
		c1.494,0.466,2.769,1.432,3.628,2.702h10.976h0.832V19.963H2.743v22.483h5.405H14.551z"/>
	<path d="M25.301,43.446c-0.198-0.359-0.436-0.692-0.703-1c-1.067-1.229-2.637-2.009-4.393-2.009s-3.326,0.781-4.393,2.009
		c-0.267,0.307-0.505,0.641-0.703,1c-0.175,0.316-0.32,0.651-0.434,1c-0.187,0.57-0.291,1.178-0.291,1.811
		c0,0.478,0.064,0.941,0.173,1.386c0.623,2.544,2.911,4.435,5.648,4.435s5.025-1.891,5.648-4.435
		c0.109-0.445,0.173-0.907,0.173-1.386c0-0.633-0.104-1.241-0.291-1.811C25.62,44.097,25.476,43.763,25.301,43.446z"/>
	<path d="M51.803,40.437c-2.835,0-5.194,2.028-5.712,4.712c-0.069,0.359-0.108,0.729-0.108,1.109c0,3.215,2.606,5.821,5.821,5.821
		s5.821-2.606,5.821-5.821c0-0.379-0.039-0.75-0.108-1.109C56.997,42.465,54.638,40.437,51.803,40.437z"/>
</g>
</svg>
