<?xml version="1.0" encoding="iso-8859-1"?>
<!-- Generator: Adobe Illustrator 17.0.0, SVG Export Plug-In . SVG Version: 6.00 Build 0)  -->
<!DOCTYPE svg PUBLIC "-//W3C//DTD SVG 1.1//EN" "http://www.w3.org/Graphics/SVG/1.1/DTD/svg11.dtd">
<svg version="1.1" id="Capa_1" xmlns="http://www.w3.org/2000/svg" xmlns:xlink="http://www.w3.org/1999/xlink" x="0px" y="0px"
	 width="64px" height="64px" viewBox="0 0 64 64" style="enable-background:new 0 0 64 64;" xml:space="preserve">
<g>
	<path d="M2.884,40.839c0.027,3.947,3.271,3.569,3.271,3.569l2.577,0.041c0.081-4.017,3.356-7.25,7.393-7.25
		c4.087,0,7.4,3.313,7.4,7.4c0,0.025-0.004,0.05-0.004,0.075c2.027-0.019,10.876-0.104,19.212-0.243
		c0.09-4.009,3.362-7.232,7.392-7.232c3.896,0,7.082,3.013,7.372,6.835c0.306-0.019,0.58-0.038,0.78-0.058
		c4.38-0.433,3.136-2.758,3.19-3.352s-1.027-0.77-1.027-0.77s1.784-2.906,0-9.881s1.298-10.543-8.436-10.638
		s-33.629,0.419-33.629,0.419s-6.596,0.433-8.164,3.677c-1.568,3.244-6.056,9.516-6.056,9.516c-1.215,1.737-1.027,4.677-1.027,4.677
		C1.668,39.217,2.884,40.839,2.884,40.839z"/>
	<circle cx="16.125" cy="45.674" r="5.701"/>
	<circle cx="50.125" cy="45.674" r="5.701"/>
</g>
</svg>
