<?xml version="1.0" encoding="iso-8859-1"?>
<!-- Generator: Adobe Illustrator 17.0.0, SVG Export Plug-In . SVG Version: 6.00 Build 0)  -->
<!DOCTYPE svg PUBLIC "-//W3C//DTD SVG 1.1//EN" "http://www.w3.org/Graphics/SVG/1.1/DTD/svg11.dtd">
<svg version="1.1" id="Capa_1" xmlns="http://www.w3.org/2000/svg" xmlns:xlink="http://www.w3.org/1999/xlink" x="0px" y="0px"
	 width="64px" height="64px" viewBox="0 0 64 64" style="enable-background:new 0 0 64 64;" xml:space="preserve">
<g>
	<path d="M5.667,40.583c0.775,0.084,1.641,0.158,2.574,0.224c0.037-3.331,2.755-6.031,6.095-6.031c3.363,0,6.099,2.736,6.099,6.099
		c0,0.108-0.011,0.213-0.016,0.32c7.807,0.068,16.678-0.078,23.984-0.245c0-0.025-0.004-0.05-0.004-0.075
		c0-3.363,2.736-6.099,6.099-6.099c3.282,0,5.959,2.608,6.086,5.859c1.226-0.032,2.1-0.052,2.5-0.052c3.417,0,3.25,0.083,3.25-3.167
		s-0.833-2.75-0.833-2.75c0-5.333-0.5-3-4.25-6.765C53.5,24.137,43,19,43,19S9.083,16,5.75,19.5S2.833,38,2.833,38
		C0.833,41.083,5.667,40.583,5.667,40.583z"/>
	<path d="M14.336,35.776c-2.814,0-5.095,2.28-5.098,5.093c0,0.002,0,0.003,0,0.005c0,2.816,2.283,5.099,5.099,5.099
		c2.71,0,4.904-2.12,5.067-4.789c0.006-0.105,0.031-0.204,0.031-0.31C19.435,38.059,17.152,35.776,14.336,35.776z"/>
	<path d="M50.497,35.776c-2.816,0-5.099,2.283-5.099,5.099c0,0.018,0.005,0.034,0.005,0.052c0.029,2.791,2.295,5.047,5.093,5.047
		c2.816,0,5.099-2.283,5.099-5.099c0-0.073-0.018-0.141-0.021-0.213C55.46,37.947,53.24,35.776,50.497,35.776z"/>
</g>
</svg>
