<?xml version="1.0" encoding="iso-8859-1"?>
<!-- Generator: Adobe Illustrator 17.0.0, SVG Export Plug-In . SVG Version: 6.00 Build 0)  -->
<!DOCTYPE svg PUBLIC "-//W3C//DTD SVG 1.1//EN" "http://www.w3.org/Graphics/SVG/1.1/DTD/svg11.dtd">
<svg version="1.1" id="Capa_1" xmlns="http://www.w3.org/2000/svg" xmlns:xlink="http://www.w3.org/1999/xlink" x="0px" y="0px"
	 width="64px" height="64px" viewBox="0 0 64 64" style="enable-background:new 0 0 64 64;" xml:space="preserve">
<g>
	<path d="M6.151,44.477c0.787,2.513,3.133,4.336,5.905,4.336c2.744,0,5.067-1.788,5.877-4.26c0.054-0.164,0.098-0.332,0.138-0.501
		c0.039-0.165,0.07-0.332,0.095-0.502c0.045-0.302,0.076-0.609,0.076-0.924c0-3.417-2.77-6.188-6.188-6.188
		c-3.417,0-6.188,2.77-6.188,6.188c0,0.286,0.026,0.566,0.064,0.842c0.023,0.17,0.051,0.339,0.087,0.505
		C6.058,44.142,6.099,44.312,6.151,44.477z"/>
	<path d="M44.006,43.918c0.595,2.796,3.076,4.894,6.05,4.894c3.227,0,5.873-2.471,6.159-5.623c0.015-0.167,0.024-0.335,0.026-0.506
		c0-0.02,0.003-0.039,0.003-0.059c0-0.15-0.012-0.296-0.022-0.444c-0.228-3.209-2.898-5.744-6.165-5.744
		c-3.417,0-6.188,2.77-6.188,6.188c0,0.101,0.01,0.198,0.015,0.298c0.008,0.168,0.021,0.335,0.042,0.5
		C43.947,43.59,43.972,43.756,44.006,43.918z"/>
	<path d="M60.283,24.691c-0.722,0.068-1.332,0.43-1.722,0.936c-0.164,0.212-0.287,0.448-0.361,0.703
		c-0.069,0.237-0.103,0.485-0.079,0.741l0.253,2.686c-0.206-0.203-0.381-0.32-0.381-0.32c0-3.75-1.312-6.25-1.312-6.25l1-0.688
		l-0.688-0.562c0,0-8.438,0-15.5,0s-15.25,1.562-16.25,2.625s-5.875,5.75-5.875,5.75l-14.312,2c0,0-2.062,3-2.5,3.812
		S1.806,37,1.806,37c-1.749,4.269,1.788,5.869,3.097,6.302c-0.021-0.223-0.034-0.449-0.034-0.677c0-3.963,3.224-7.188,7.188-7.188
		s7.188,3.224,7.188,7.188c0,0.31-0.026,0.614-0.065,0.914c7.471-0.085,16.38-0.301,23.707-0.577
		c-0.005-0.112-0.017-0.223-0.017-0.336c0-3.963,3.224-7.188,7.188-7.188c3.739,0,6.817,2.87,7.154,6.522
		c2.581-0.824,2.83-3.857,2.552-6.525c0.163,0.103,0.338,0.188,0.527,0.251c0.166,0.055,0.339,0.097,0.519,0.116
		c0.17,0.018,0.344,0.023,0.522,0.007c1.306-0.123,2.274-1.189,2.161-2.38l-0.641-6.803C62.738,25.434,61.588,24.568,60.283,24.691z
		"/>
</g>
</svg>
